<?xml version="1.0" encoding="UTF-8"?>
<svg width="120px" height="120px" viewBox="0 0 120 120" version="1.1" xmlns="http://www.w3.org/2000/svg" xmlns:xlink="http://www.w3.org/1999/xlink">
    <!-- Generator: Sketch 54.1 (76490) - https://sketchapp.com -->
    <title>g5236</title>
    <desc>Created with Sketch.</desc>
    <g id="Page-1" stroke="none" stroke-width="1" fill="none" fill-rule="evenodd">
        <g id="zajava" transform="translate(-171.000000, 0.000000)" fill="#FAAA36" fill-rule="nonzero">
            <g id="g5236" transform="translate(171.909373, 0.904700)">
                <g id="g5098">
                    <g id="g5096">
                        <path d="M95.850143,34.4383278 C97.1285863,34.4383278 98.1653247,33.4018209 98.1653247,32.1231461 L98.1653247,6.9455451 C98.1653247,3.11577153 95.0495532,0 91.2197796,0 L6.94716573,0 C3.11739216,0 0.00162062719,3.11577153 0.00162062719,6.9455451 L0.00162062719,111.591758 C0.00162062719,115.421532 3.11739216,118.537303 6.94716573,118.537303 L91.2197796,118.537303 C95.0495532,118.537303 98.1653247,115.421532 98.1653247,111.591758 L98.1653247,94.5353513 C98.1653247,93.2566765 97.1285863,92.2201696 95.850143,92.2201696 C94.5716997,92.2201696 93.5349613,93.2566765 93.5349613,94.5353513 L93.5349613,111.591758 C93.5349613,112.868349 92.4963708,113.90694 91.2197796,113.90694 L6.94716573,113.90694 C5.67057454,113.90694 4.63198403,112.868349 4.63198403,111.591758 L4.63198403,6.9455451 C4.63198403,5.66895391 5.67057454,4.6303634 6.94716573,4.6303634 L91.2197796,4.6303634 C92.4963708,4.6303634 93.5349613,5.66895391 93.5349613,6.9455451 L93.5349613,32.1231461 C93.5349613,33.4018209 94.5716997,34.4383278 95.850143,34.4383278 Z" id="path5094"></path>
                    </g>
                </g>
                <g id="g5104" transform="translate(27.782180, 12.501981)">
                    <g id="g5102">
                        <path d="M21.3012923,0 C9.55660702,0 0.00162062719,9.55498639 0.00162062719,21.2996716 C0.00162062719,27.3925353 2.5737875,32.8952592 6.68832841,36.7810601 C6.76542396,36.8634806 6.8473814,36.9415022 6.93697893,37.0125783 C10.7271629,40.480489 15.7712493,42.5991118 21.3010607,42.5991118 C26.8308722,42.5991118 31.8749586,40.4802575 35.6651426,37.0125783 C35.7547401,36.9415022 35.8366975,36.8632491 35.9137931,36.7810601 C40.028797,32.8952592 42.6009639,27.3925353 42.6009639,21.2996716 C42.6009639,9.55498639 33.0459775,0 21.3012923,0 L21.3012923,0 Z M21.3012923,37.9689799 C17.5208321,37.9689799 14.0318532,36.7021125 11.2323355,34.5730714 C13.2671487,30.9648607 17.0642782,28.7082531 21.3012923,28.7082531 C25.5383063,28.7082531 29.3354358,30.9648607 31.370249,34.5730714 C28.5704998,36.7021125 25.0817525,37.9689799 21.3012923,37.9689799 Z M17.5970015,20.373599 L17.5970015,18.8687309 C17.5970015,16.8262776 19.258839,15.1644401 21.3012923,15.1644401 C23.3437456,15.1644401 25.005583,16.8262776 25.005583,18.8687309 L25.005583,20.373599 C25.005583,22.4160523 23.3437456,24.0778897 21.3012923,24.0778897 C19.258839,24.0778897 17.5970015,22.4160523 17.5970015,20.373599 Z M34.715455,31.1815617 C33.0080085,28.6492159 30.6416613,26.6796909 27.8942352,25.4637574 C28.9846858,24.0545063 29.6359464,22.2891803 29.6359464,20.373599 L29.6359464,18.8687309 C29.6359464,14.2728637 25.8971595,10.5340767 21.3012923,10.5340767 C16.7054251,10.5340767 12.9666381,14.2728637 12.9666381,18.8687309 L12.9666381,20.373599 C12.9666381,22.2891803 13.6178988,24.0545063 14.7083493,25.4637574 C11.9609232,26.6796909 9.594576,28.6492159 7.8871295,31.1815617 C5.84305557,28.414225 4.63198403,24.9963223 4.63198403,21.2996716 C4.63198403,12.1081688 12.1097894,4.6303634 21.3012923,4.6303634 C30.4927951,4.6303634 37.9706005,12.1081688 37.9706005,21.2996716 C37.9706005,24.9963223 36.759529,28.414225 34.715455,31.1815617 Z" id="path5100"></path>
                    </g>
                </g>
                <g id="g5110" transform="translate(46.766670, 101.404958)">
                    <g id="g5108">
                        <path d="M14.8187835,0 L2.31680233,0 C1.03835899,0 0.00162062719,1.03650685 0.00162062719,2.3151817 C0.00162062719,3.59385655 1.03835899,4.6303634 2.31680233,4.6303634 L14.8187835,4.6303634 C16.0972268,4.6303634 17.1339652,3.59385655 17.1339652,2.3151817 C17.1339652,1.03650685 16.0972268,0 14.8187835,0 Z" id="path5106"></path>
                    </g>
                </g>
                <g id="g5116" transform="translate(26.393071, 88.439941)">
                    <g id="g5114">
                        <path d="M35.1923825,0 L2.31680233,0 C1.03835899,0 0.00162062719,1.03650685 0.00162062719,2.3151817 C0.00162062719,3.59385655 1.03835899,4.6303634 2.31680233,4.6303634 L35.1923825,4.6303634 C36.4708258,4.6303634 37.5075642,3.59385655 37.5075642,2.3151817 C37.5075642,1.03650685 36.4708258,0 35.1923825,0 Z" id="path5112"></path>
                    </g>
                </g>
                <g id="g5122" transform="translate(26.393071, 75.474923)">
                    <g id="g5120">
                        <path d="M35.1923825,0 L2.31680233,0 C1.03835899,0 0.00162062719,1.03650685 0.00162062719,2.3151817 C0.00162062719,3.59385655 1.03835899,4.6303634 2.31680233,4.6303634 L35.1923825,4.6303634 C36.4708258,4.6303634 37.5075642,3.59385655 37.5075642,2.3151817 C37.5075642,1.03650685 36.4708258,0 35.1923825,0 Z" id="path5118"></path>
                    </g>
                </g>
                <g id="g5128" transform="translate(16.437790, 62.509906)">
                    <g id="g5126">
                        <path d="M4.02054454,0.678348238 C3.59015226,0.247724442 2.99283538,0 2.38162741,0 C1.77250311,0 1.17518623,0.247724442 0.744793953,0.678348238 C0.314170157,1.10897203 0.0664457148,1.70628891 0.0664457148,2.3151817 C0.0664457148,2.92407449 0.313938639,3.52139137 0.744793953,3.95201516 C1.17773293,4.38263896 1.77250311,4.6303634 2.38162741,4.6303634 C2.99283538,4.6303634 3.58783708,4.38263896 4.02054454,3.95201516 C4.45116834,3.52139137 4.6991243,2.92407449 4.6991243,2.3151817 C4.6991243,1.70628891 4.45139985,1.10897203 4.02054454,0.678348238 Z" id="path5124"></path>
                    </g>
                </g>
                <g id="g5134" transform="translate(16.437790, 75.474923)">
                    <g id="g5132">
                        <path d="M4.02054454,0.678348238 C3.58783708,0.247724442 2.99283538,0 2.38162741,0 C1.77250311,0 1.17773293,0.247724442 0.744793953,0.678348238 C0.314170157,1.10897203 0.0664457148,1.70628891 0.0664457148,2.3151817 C0.0664457148,2.92407449 0.313938639,3.52139137 0.744793953,3.95201516 C1.17773293,4.38263896 1.77250311,4.6303634 2.38162741,4.6303634 C2.99283538,4.6303634 3.58783708,4.38263896 4.02054454,3.95201516 C4.45116834,3.52139137 4.6991243,2.92407449 4.6991243,2.3151817 C4.6991243,1.70628891 4.45139985,1.10897203 4.02054454,0.678348238 Z" id="path5130"></path>
                    </g>
                </g>
                <g id="g5140" transform="translate(16.437790, 88.439941)">
                    <g id="g5138">
                        <path d="M4.02054454,0.678348238 C3.58783708,0.247724442 2.99283538,0 2.38162741,0 C1.77250311,0 1.17773293,0.247724442 0.744793953,0.678348238 C0.314170157,1.10897203 0.0664457148,1.70628891 0.0664457148,2.3151817 C0.0664457148,2.92407449 0.313938639,3.52139137 0.744793953,3.95201516 C1.17518623,4.38263896 1.77250311,4.6303634 2.38162741,4.6303634 C2.99283538,4.6303634 3.59015226,4.38263896 4.02054454,3.95201516 C4.45116834,3.52139137 4.6991243,2.92407449 4.6991243,2.3151817 C4.6991243,1.70628891 4.45139985,1.10897203 4.02054454,0.678348238 Z" id="path5136"></path>
                    </g>
                </g>
                <g id="g5146" transform="translate(26.393071, 62.509906)">
                    <g id="g5144">
                        <path d="M35.1923825,0 L2.31680233,0 C1.03835899,0 0.00162062719,1.03650685 0.00162062719,2.3151817 C0.00162062719,3.59385655 1.03835899,4.6303634 2.31680233,4.6303634 L35.1923825,4.6303634 C36.4708258,4.6303634 37.5075642,3.59385655 37.5075642,2.3151817 C37.5075642,1.03650685 36.4708258,0 35.1923825,0 Z" id="path5142"></path>
                    </g>
                </g>
                <g id="g5152" transform="translate(68.760896, 28.708253)">
                    <g id="g5150">
                        <path d="M44.914988,1.46319483 C42.665789,0.164609419 40.0454663,-0.180352654 37.5362724,0.491744593 C35.0275415,1.16407336 32.9304499,2.77312464 31.632096,5.02232366 L2.4973865,55.4847185 C2.33787048,55.7613828 2.23692856,56.0681443 2.20150628,56.3855557 L0.150718329,74.7551334 C0.0488503339,75.6691672 0.497532547,76.5570393 1.29395505,77.017066 C1.65350277,77.2245062 2.05287161,77.3273003 2.45131438,77.3273003 C2.9356504,77.3273003 3.41813426,77.1756559 3.82444865,76.8763029 L18.7073627,65.9153067 C18.9645794,65.7259248 19.1798913,65.4853774 19.3394073,65.2087132 L48.4738853,14.7463183 C51.1548657,10.1029899 49.5583164,4.14417524 44.914988,1.46319483 Z M5.33950355,70.0097055 L6.41050661,60.4174447 L13.1111055,64.2861133 L5.33950355,70.0097055 Z M16.4871034,60.8883526 L7.66510357,55.7949529 L31.044966,15.3001098 L39.8669658,20.3935095 L16.4871034,60.8883526 Z M44.4639906,12.4309051 L42.181916,16.3836148 L33.3599162,11.2902151 L35.6419908,7.33750536 C36.3221911,6.15930939 37.4205133,5.31658326 38.7346105,4.96444412 C40.0491706,4.61207346 41.4216103,4.79312067 42.5995748,5.47332106 C43.7777708,6.15352144 44.6204969,7.25184364 44.972636,8.56594077 C45.3247752,9.8800379 45.144191,11.2527091 44.4639906,12.4309051 Z" id="path5148"></path>
                    </g>
                </g>
            </g>
        </g>
    </g>
</svg>