<?xml version="1.0" encoding="UTF-8" standalone="no"?>
<!-- Created with Inkscape (http://www.inkscape.org/) -->

<svg
   xmlns:dc="http://purl.org/dc/elements/1.1/"
   xmlns:cc="http://creativecommons.org/ns#"
   xmlns:rdf="http://www.w3.org/1999/02/22-rdf-syntax-ns#"
   xmlns:svg="http://www.w3.org/2000/svg"
   xmlns="http://www.w3.org/2000/svg"
   xmlns:sodipodi="http://sodipodi.sourceforge.net/DTD/sodipodi-0.dtd"
   xmlns:inkscape="http://www.inkscape.org/namespaces/inkscape"
   width="210mm"
   height="297mm"
   viewBox="0 0 210 297"
   version="1.1"
   id="svg8"
   inkscape:version="0.92.4 (5da689c313, 2019-01-14)"
   sodipodi:docname="bank.svg">
  <defs
     id="defs2" />
  <sodipodi:namedview
     id="base"
     pagecolor="#ffffff"
     bordercolor="#666666"
     borderopacity="1.0"
     inkscape:pageopacity="0.0"
     inkscape:pageshadow="2"
     inkscape:zoom="0.43761439"
     inkscape:cx="391.44837"
     inkscape:cy="703.4716"
     inkscape:document-units="mm"
     inkscape:current-layer="layer1"
     showgrid="false"
     inkscape:window-width="798"
     inkscape:window-height="778"
     inkscape:window-x="928"
     inkscape:window-y="29"
     inkscape:window-maximized="0" />
  <metadata
     id="metadata5">
    <rdf:RDF>
      <cc:Work
         rdf:about="">
        <dc:format>image/svg+xml</dc:format>
        <dc:type
           rdf:resource="http://purl.org/dc/dcmitype/StillImage" />
        <dc:title></dc:title>
      </cc:Work>
    </rdf:RDF>
  </metadata>
  <g
     inkscape:label="Layer 1"
     inkscape:groupmode="layer"
     id="layer1">
    <g
       id="g4756"
       transform="matrix(0.26458333,0,0,0.26458333,-128.01369,138.63228)"
       style="fill:#faab36;fill-opacity:1">
      <g
         id="g4609"
         style="fill:#faab36;fill-opacity:1">
	<g
   id="g4607"
   style="fill:#faab36;fill-opacity:1">
		<path
   id="path4605"
   d="m 420.936,150.964 c -1.858,-1.86 -4.438,-2.929 -7.067,-2.929 -2.629,0 -5.208,1.069 -7.068,2.929 -1.859,1.86 -2.929,4.439 -2.929,7.068 0,2.629 1.069,5.208 2.929,7.067 1.859,1.859 4.439,2.93 7.068,2.93 2.629,0 5.208,-1.07 7.067,-2.93 1.859,-1.858 2.93,-4.438 2.93,-7.067 0,-2.629 -1.07,-5.209 -2.93,-7.068 z"
   inkscape:connector-curvature="0"
   style="fill:#faab36;fill-opacity:1" />

	</g>

</g>
      <g
         id="g4615"
         style="fill:#faab36;fill-opacity:1">
	<g
   id="g4613"
   style="fill:#faab36;fill-opacity:1">
		<path
   id="path4611"
   d="m 413.869,128.541 c 5.52,0 9.997,-4.477 9.997,-9.997 V 30.072 c 0,-16.537 -13.454,-29.99 -29.991,-29.99 H 29.991 C 13.454,0.081 0,13.535 0,30.072 v 451.857 c 0,16.537 13.454,29.991 29.991,29.991 h 363.885 c 16.537,0 29.991,-13.454 29.991,-29.991 v -44.9 c 0,-5.52 -4.477,-9.997 -9.997,-9.997 -5.52,0 -9.997,4.477 -9.997,9.997 v 44.9 c 0,5.512 -4.485,9.997 -9.997,9.997 H 29.991 c -5.512,0 -9.997,-4.485 -9.997,-9.997 V 30.072 c 0,-5.512 4.485,-9.997 9.997,-9.997 h 363.885 c 5.512,0 9.997,4.485 9.997,9.997 v 88.472 c -10e-4,5.52 4.476,9.997 9.996,9.997 z"
   inkscape:connector-curvature="0"
   style="fill:#faab36;fill-opacity:1" />

	</g>

</g>
      <g
         id="g4621"
         style="fill:#faab36;fill-opacity:1">
	<g
   id="g4619"
   style="fill:#faab36;fill-opacity:1">
		<path
   id="path4617"
   d="m 503.216,402.156 -51.569,-51.569 c 8.879,-15.852 13.953,-34.111 13.953,-53.536 0,-60.6 -49.301,-109.902 -109.902,-109.902 -0.605,0 -1.207,0.013 -1.809,0.023 v -55.006 c 0,-5.52 -4.477,-9.997 -9.997,-9.997 H 285.466 V 68.187 c 0,-5.52 -4.477,-9.997 -9.997,-9.997 h -68.422 c -5.52,0 -9.997,4.477 -9.997,9.997 v 59.981 h -58.426 c -5.52,0 -9.997,4.477 -9.997,9.997 v 53.983 H 79.975 c -5.52,0 -9.997,4.477 -9.997,9.997 v 53.983 c 0,5.52 4.477,9.997 9.997,9.997 h 170.257 c -2.883,9.815 -4.437,20.192 -4.437,30.927 0,60.6 49.301,109.902 109.902,109.902 19.425,0 37.685,-5.072 53.536,-13.953 l 51.231,51.23 c 6.035,6.036 13.88,9.078 21.692,9.077 7.29,0 14.551,-2.649 20.28,-7.985 6.019,-5.605 9.413,-13.215 9.56,-21.424 0.145,-8.215 -2.973,-15.935 -8.78,-21.743 z M 128.626,246.131 H 89.972 v -33.989 h 38.655 v 33.989 z m 68.423,0 H 148.62 v -43.986 -53.983 h 48.429 z m 19.993,0 V 138.165 78.184 h 48.429 v 53.983 36.195 13.663 c 0,5.52 4.477,9.997 9.997,9.997 5.52,0 9.997,-4.477 9.997,-9.997 v -13.663 -26.198 h 48.43 v 47.161 c -32.845,6.637 -60.423,27.966 -75.566,56.806 z M 355.697,386.96 c -49.575,0 -89.909,-40.334 -89.909,-89.909 0,-49.575 40.333,-89.909 89.909,-89.909 49.576,0 89.909,40.333 89.909,89.909 0,49.576 -40.333,89.909 -89.909,89.909 z m 133.112,43.731 c -3.887,3.62 -10.258,3.351 -14.207,-0.599 l -48.621,-48.621 c 5.127,-4.277 9.861,-9.009 14.138,-14.138 l 48.96,48.959 c 1.936,1.936 2.976,4.51 2.927,7.248 -0.051,2.739 -1.184,5.277 -3.197,7.151 z"
   inkscape:connector-curvature="0"
   style="fill:#faab36;fill-opacity:1" />

	</g>

</g>
      <g
         id="g4627"
         style="fill:#faab36;fill-opacity:1">
	<g
   id="g4625"
   style="fill:#faab36;fill-opacity:1">
		<path
   id="path4623"
   d="m 381.723,245.935 c -4.807,-2.713 -10.906,-1.019 -13.62,3.791 l -53.752,95.214 c -2.714,4.808 -1.018,10.906 3.791,13.62 1.553,0.877 3.24,1.294 4.905,1.294 3.488,0 6.877,-1.829 8.714,-5.084 l 53.752,-95.214 c 2.715,-4.81 1.018,-10.907 -3.79,-13.621 z"
   inkscape:connector-curvature="0"
   style="fill:#faab36;fill-opacity:1" />

	</g>

</g>
      <g
         id="g4633"
         style="fill:#faab36;fill-opacity:1">
	<g
   id="g4631"
   style="fill:#faab36;fill-opacity:1">
		<path
   id="path4629"
   d="m 390.627,305.586 c -16.537,0 -29.991,13.454 -29.991,29.991 0,16.537 13.454,29.99 29.991,29.99 16.537,0 29.99,-13.454 29.99,-29.99 10e-4,-16.538 -13.453,-29.991 -29.99,-29.991 z m 0,39.987 c -5.512,0 -9.997,-4.485 -9.997,-9.997 0,-5.512 4.485,-9.997 9.997,-9.997 5.512,0 9.997,4.485 9.997,9.997 0,5.512 -4.484,9.997 -9.997,9.997 z"
   inkscape:connector-curvature="0"
   style="fill:#faab36;fill-opacity:1" />

	</g>

</g>
      <g
         id="g4639"
         style="fill:#faab36;fill-opacity:1">
	<g
   id="g4637"
   style="fill:#faab36;fill-opacity:1">
		<path
   id="path4635"
   d="m 320.767,228.535 c -16.537,0 -29.991,13.454 -29.991,29.991 0,16.537 13.454,29.991 29.991,29.991 16.537,0 29.99,-13.454 29.99,-29.991 0,-16.537 -13.454,-29.991 -29.99,-29.991 z m 0,39.987 c -5.512,0 -9.997,-4.485 -9.997,-9.997 0,-5.512 4.485,-9.997 9.997,-9.997 5.512,0 9.997,4.485 9.997,9.997 0,5.512 -4.485,9.997 -9.997,9.997 z"
   inkscape:connector-curvature="0"
   style="fill:#faab36;fill-opacity:1" />

	</g>

</g>
      <g
         id="g4645"
         style="fill:#faab36;fill-opacity:1">
	<g
   id="g4643"
   style="fill:#faab36;fill-opacity:1">
		<path
   id="path4641"
   d="M 340.76,437.943 H 63.98 c -5.52,0 -9.997,4.477 -9.997,9.997 0,5.52 4.477,9.997 9.997,9.997 h 276.78 c 5.52,0 9.997,-4.477 9.997,-9.997 0,-5.52 -4.477,-9.997 -9.997,-9.997 z"
   inkscape:connector-curvature="0"
   style="fill:#faab36;fill-opacity:1" />

	</g>

</g>
      <g
         id="g4651"
         style="fill:#faab36;fill-opacity:1">
	<g
   id="g4649"
   style="fill:#faab36;fill-opacity:1">
		<path
   id="path4647"
   d="m 211.933,381.961 h -61.985 c -5.52,0 -9.997,4.477 -9.997,9.997 0,5.52 4.477,9.997 9.997,9.997 h 61.985 c 5.52,0 9.997,-4.477 9.997,-9.997 0,-5.52 -4.477,-9.997 -9.997,-9.997 z"
   inkscape:connector-curvature="0"
   style="fill:#faab36;fill-opacity:1" />

	</g>

</g>
      <g
         id="g4657"
         style="fill:#faab36;fill-opacity:1">
	<g
   id="g4655"
   style="fill:#faab36;fill-opacity:1">
		<path
   id="path4653"
   d="m 255.659,384.89 c -1.859,-1.859 -4.439,-2.929 -7.068,-2.929 -2.629,0 -5.208,1.069 -7.068,2.929 -1.869,1.859 -2.929,4.439 -2.929,7.068 0,2.629 1.06,5.208 2.929,7.067 1.859,1.859 4.43,2.93 7.068,2.93 2.629,0 5.208,-1.07 7.068,-2.93 1.858,-1.858 2.929,-4.438 2.929,-7.067 0,-2.63 -1.069,-5.209 -2.929,-7.068 z"
   inkscape:connector-curvature="0"
   style="fill:#faab36;fill-opacity:1" />

	</g>

</g>
      <g
         id="g4663"
         style="fill:#faab36;fill-opacity:1">
	<g
   id="g4661"
   style="fill:#faab36;fill-opacity:1">
		<path
   id="path4659"
   d="m 211.933,325.978 h -61.985 c -5.52,0 -9.997,4.477 -9.997,9.997 0,5.52 4.477,9.997 9.997,9.997 h 61.985 c 5.52,0 9.997,-4.477 9.997,-9.997 0,-5.52 -4.477,-9.997 -9.997,-9.997 z"
   inkscape:connector-curvature="0"
   style="fill:#faab36;fill-opacity:1" />

	</g>

</g>
      <g
         id="g4669"
         style="fill:#faab36;fill-opacity:1">
	<g
   id="g4667"
   style="fill:#faab36;fill-opacity:1">
		<path
   id="path4665"
   d="m 85.973,351.46 c -6.615,0 -11.996,-4.47 -11.996,-9.964 0,-5.494 5.381,-9.963 11.996,-9.963 6.615,0 11.996,4.47 11.996,9.963 0,5.52 4.477,9.997 9.997,9.997 5.52,0 9.997,-4.477 9.997,-9.997 0,-13.253 -9.241,-24.515 -22.003,-28.453 -0.103,-5.431 -4.531,-9.806 -9.987,-9.806 -5.456,0 -9.885,4.375 -9.987,9.806 -12.762,3.938 -22.003,15.2 -22.003,28.453 0,16.518 14.35,29.958 31.99,29.958 6.615,0 11.996,4.47 11.996,9.963 0,5.493 -5.381,9.963 -11.996,9.963 -6.615,0 -11.996,-4.47 -11.996,-9.963 0,-5.52 -4.477,-9.997 -9.997,-9.997 -5.52,0 -9.997,4.477 -9.997,9.997 0,13.249 9.236,24.509 21.993,28.45 v 0.577 c 0,5.52 4.477,9.997 9.997,9.997 5.52,0 9.997,-4.477 9.997,-9.997 v -0.577 c 12.757,-3.941 21.993,-15.201 21.993,-28.45 0,-16.518 -14.351,-29.957 -31.99,-29.957 z"
   inkscape:connector-curvature="0"
   style="fill:#faab36;fill-opacity:1" />

	</g>

</g>
      <g
         id="g4671"
         style="fill:#faab36;fill-opacity:1">
</g>
      <g
         id="g4673"
         style="fill:#faab36;fill-opacity:1">
</g>
      <g
         id="g4675"
         style="fill:#faab36;fill-opacity:1">
</g>
      <g
         id="g4677"
         style="fill:#faab36;fill-opacity:1">
</g>
      <g
         id="g4679"
         style="fill:#faab36;fill-opacity:1">
</g>
      <g
         id="g4681"
         style="fill:#faab36;fill-opacity:1">
</g>
      <g
         id="g4683"
         style="fill:#faab36;fill-opacity:1">
</g>
      <g
         id="g4685"
         style="fill:#faab36;fill-opacity:1">
</g>
      <g
         id="g4687"
         style="fill:#faab36;fill-opacity:1">
</g>
      <g
         id="g4689"
         style="fill:#faab36;fill-opacity:1">
</g>
      <g
         id="g4691"
         style="fill:#faab36;fill-opacity:1">
</g>
      <g
         id="g4693"
         style="fill:#faab36;fill-opacity:1">
</g>
      <g
         id="g4695"
         style="fill:#faab36;fill-opacity:1">
</g>
      <g
         id="g4697"
         style="fill:#faab36;fill-opacity:1">
</g>
      <g
         id="g4699"
         style="fill:#faab36;fill-opacity:1">
</g>
    </g>
    <g
       id="surface1"
       transform="matrix(0.24410864,0,0,0.24410864,24.311666,78.935808)"
       style="fill:#faaa36;fill-opacity:1">
      <path
         id="path5238"
         style="fill:#faaa36;fill-opacity:1;fill-rule:nonzero;stroke:none"
         d="m 10.964844,163.25391 c -0.214844,1.16796 -0.335938,2.35156 -0.375,3.53515 v 24.3125 c 0.03125,10.01953 6.253906,18.97656 15.640625,22.4961 v 35.77343 c 0.04297,11.97657 9.460937,21.82032 21.421875,22.38672 v 206.66797 c -11.960938,0.57031 -21.378906,10.41406 -21.421875,22.38672 v 35.66797 c -9.40625,3.61328 -15.625,12.63672 -15.640625,22.70703 v 23.78125 c 0,4.43359 3.601562,8.03125 8.035156,8.03125 h 541.76562 c 4.4336,0 8.03125,-3.59766 8.03125,-8.03125 V 559.1875 c -0.0156,-10.07422 -6.23437,-19.09766 -15.63671,-22.70703 v -35.87891 c -0.043,-11.97656 -9.46485,-21.82031 -21.42188,-22.38672 V 271.75781 c 11.95703,-0.5664 21.37891,-10.41015 21.42188,-22.38672 v -35.77343 c 9.38281,-3.51954 15.60546,-12.47657 15.63671,-22.4961 v -24.15234 c -0.0352,-1.1836 -0.16015,-2.36719 -0.375,-3.53516 4.03907,1.78906 8.76172,-0.0312 10.55079,-4.07031 1.78906,-4.03516 -0.0312,-8.75781 -4.06641,-10.55078 L 293.20312,0.929688 c -2.34765,-1.238282 -5.15234,-1.238282 -7.5,0 L 4.378906,148.63281 c -3.925781,2.07422 -5.429687,6.92969 -3.363281,10.85547 1.890625,3.58594 6.15625,5.20313 9.949219,3.76563 z m 31.332031,64.26562 v -12.37109 h 92.648435 v 12.26562 z M 248.58984,271.8125 v 206.61328 c -11.96093,0.57031 -21.3789,10.41406 -21.42187,22.38672 v 34.16797 H 150.90234 V 500.8125 c -0.043,-11.97266 -9.46093,-21.81641 -21.42187,-22.38672 V 271.75781 c 11.96094,-0.5664 21.3789,-10.41015 21.42187,-22.38672 v -34.22265 h 76.15625 v 34.17187 c 0.0195,11.9961 9.44532,21.86328 21.42578,22.4375 z m -5.35547,-44.29297 v -12.37109 h 92.65235 v 12.26562 z m 206.29688,44.29297 v 206.61328 c -11.96094,0.57031 -21.38281,10.41406 -21.42578,22.38672 v 34.16797 H 351.84375 V 500.8125 c -0.043,-11.97266 -9.46484,-21.81641 -21.42188,-22.38672 V 271.75781 c 11.95704,-0.5664 21.37891,-10.41015 21.42188,-22.38672 V 215.14844 H 428 v 34.17187 c 0.0156,11.9961 9.44141,21.86328 21.42187,22.4375 z m -5.35547,-44.29297 v -12.37109 h 92.64844 v 12.26562 z m 92.64844,295.19922 v 12.26172 h -92.75781 v -12.26172 z m -200.9375,0 v 12.26172 h -92.75781 v -12.26172 z m -79.3711,-266.86719 h -6.96093 c -3.55078,0 -6.42578,-2.875 -6.42578,-6.42578 v -5.83984 h 92.64843 v 5.83984 c 0,3.55078 -2.875,6.42578 -6.42578,6.42578 z m 57.89454,16.06641 V 478.32031 H 264.55078 V 271.91797 c 0,0 49.85938,0 49.85938,0 z m -57.89454,222.46875 h 72.83594 c 3.55078,0 6.42578,2.875 6.42578,6.42578 v 5.83984 h -92.64843 v -5.83984 c 0,-3.55078 2.875,-6.42578 6.42578,-6.42578 z m -121.67578,28.33203 v 12.26172 H 42.1875 V 522.71875 Z M 42.1875,249.58594 v -6 h 92.65234 v 5.83984 c 0,3.55078 -2.875,6.42578 -6.42968,6.42578 H 48.453125 c -3.507813,-0.0859 -6.296875,-2.97265 -6.265625,-6.48047 z m 71.23047,22.49218 V 478.32031 H 63.609375 V 271.91797 Z M 42.1875,500.97656 c 0,-3.55469 2.875,-6.42969 6.425781,-6.42969 h 79.796879 c 3.55468,0 6.42968,2.875 6.42968,6.42969 v 5.83594 H 42.1875 Z m 510.16797,58.53516 v 15.74219 H 26.550781 v -15.74219 c 0,-4.58594 3.714844,-8.30469 8.300781,-8.30469 H 544.05469 c 4.51953,0 8.21484,3.62109 8.30078,8.14063 0,0 0,0.16406 0,0.16406 z m -15.63672,-58.53516 v 5.83594 h -92.65234 v -5.83594 c 0,-3.55469 2.875,-6.42969 6.42578,-6.42969 h 79.96093 c 3.42579,0.0859 6.17969,2.83985 6.26563,6.26563 z m -71.23047,-22.49609 v -206.5625 h 49.85938 v 206.40234 z m 71.23047,-228.89453 c 0,3.55078 -2.875,6.42578 -6.42578,6.42578 h -79.7461 c -3.55078,0 -6.42578,-2.875 -6.42578,-6.42578 v -6 h 92.64844 z M 289.45312,16.996094 528.68359,142.74219 H 50.222656 Z M 26.550781,166.94922 c 0,-4.4336 3.597657,-8.03125 8.03125,-8.03125 H 544.32422 c 4.43359,0 8.03125,3.59765 8.03125,8.03125 v 24.3164 c 0,4.4336 -3.59766,8.03125 -8.03125,8.03125 H 34.582031 c -4.433593,0 -8.03125,-3.59765 -8.03125,-8.03125 z m 0,0"
         inkscape:connector-curvature="0" />
    </g>
  </g>
</svg>
