<?xml version="1.0" encoding="UTF-8"?>
<svg width="43px" height="55px" viewBox="0 0 43 55" version="1.1" xmlns="http://www.w3.org/2000/svg" xmlns:xlink="http://www.w3.org/1999/xlink">
    <!-- Generator: Sketch 54.1 (76490) - https://sketchapp.com -->
    <title>calculator</title>
    <desc>Created with Sketch.</desc>
    <g id="Page-1" stroke="none" stroke-width="1" fill="none" fill-rule="evenodd">
        <g id="calculator" fill="#FAAB36" fill-rule="nonzero">
            <path d="M39.8785431,0.85338 L3.16909914,0.85338 C1.73627887,0.85338 0.570942155,2.01960833 0.570942155,3.45153699 L0.570942155,51.7519352 C0.570942155,53.1838639 1.73627887,54.3500922 3.16909914,54.3500922 L39.8785431,54.3500922 C41.3113633,54.3500922 42.4767,53.1838639 42.4767,51.7519352 L42.4767,3.45153699 C42.4767,2.01960833 41.3113633,0.85338 39.8785431,0.85338 Z M40.6934763,51.7519352 C40.6934763,52.2013076 40.3279154,52.5668685 39.8785431,52.5668685 L3.16909914,52.5668685 C2.71972676,52.5668685 2.35416589,52.2013076 2.35416589,51.7519352 L2.35416589,3.45153699 C2.35416589,3.00216461 2.71972676,2.63660374 3.16909914,2.63660374 L39.8785431,2.63660374 C40.3279154,2.63660374 40.6934763,3.00216461 40.6934763,3.45153699 L40.6934763,51.7519352 Z" id="path4518"></path>
            <path d="M5.0290015,49.8920329 L14.8367321,49.8920329 L14.8367321,40.0843023 L5.0290015,40.0843023 L5.0290015,49.8920329 Z M6.81222524,41.867526 L13.0535083,41.867526 L13.0535083,48.1088091 L6.81222524,48.1088091 L6.81222524,41.867526 Z" id="path4520"></path>
            <path d="M16.6199558,49.8920329 L26.4276864,49.8920329 L26.4276864,40.0843023 L16.6199558,40.0843023 L16.6199558,49.8920329 Z M18.4031796,41.867526 L24.6444626,41.867526 L24.6444626,48.1088091 L18.4031796,48.1088091 L18.4031796,41.867526 Z" id="path4522"></path>
            <path d="M28.2109101,49.8920329 L38.0186407,49.8920329 L38.0186407,28.493348 L28.2109101,28.493348 L28.2109101,49.8920329 Z M29.9941339,30.2765717 L36.235417,30.2765717 L36.235417,48.1088091 L29.9941339,48.1088091 L29.9941339,30.2765717 Z" id="path4524"></path>
            <path d="M5.0290015,38.3010785 L14.8367321,38.3010785 L14.8367321,28.493348 L5.0290015,28.493348 L5.0290015,38.3010785 Z M6.81222524,30.2765717 L13.0535083,30.2765717 L13.0535083,36.5178548 L6.81222524,36.5178548 L6.81222524,30.2765717 Z" id="path4526"></path>
            <path d="M16.6199558,38.3010785 L26.4276864,38.3010785 L26.4276864,28.493348 L16.6199558,28.493348 L16.6199558,38.3010785 Z M18.4031796,30.2765717 L24.6444626,30.2765717 L24.6444626,36.5178548 L18.4031796,36.5178548 L18.4031796,30.2765717 Z" id="path4528"></path>
            <path d="M5.0290015,26.7101242 L14.8367321,26.7101242 L14.8367321,16.9023937 L5.0290015,16.9023937 L5.0290015,26.7101242 Z M6.81222524,18.6856174 L13.0535083,18.6856174 L13.0535083,24.9269005 L6.81222524,24.9269005 L6.81222524,18.6856174 Z" id="path4530"></path>
            <path d="M16.6199558,26.7101242 L26.4276864,26.7101242 L26.4276864,16.9023937 L16.6199558,16.9023937 L16.6199558,26.7101242 Z M18.4031796,18.6856174 L24.6444626,18.6856174 L24.6444626,24.9269005 L18.4031796,24.9269005 L18.4031796,18.6856174 Z" id="path4532"></path>
            <path d="M28.2109101,26.7101242 L38.0186407,26.7101242 L38.0186407,16.9023937 L28.2109101,16.9023937 L28.2109101,26.7101242 Z M29.9941339,18.6856174 L36.235417,18.6856174 L36.235417,24.9269005 L29.9941339,24.9269005 L29.9941339,18.6856174 Z" id="path4534"></path>
            <path d="M5.0290015,14.2275581 L38.0186407,14.2275581 L38.0186407,5.31143935 L5.0290015,5.31143935 L5.0290015,14.2275581 Z M6.81222524,7.09466309 L36.235417,7.09466309 L36.235417,12.4443343 L6.81222524,12.4443343 L6.81222524,7.09466309 Z" id="path4536"></path>
        </g>
    </g>
</svg>