<?xml version="1.0" encoding="UTF-8"?>
<svg width="113px" height="110px" viewBox="0 0 113 110" version="1.1" xmlns="http://www.w3.org/2000/svg" xmlns:xlink="http://www.w3.org/1999/xlink">
    <!-- Generator: Sketch 54.1 (76490) - https://sketchapp.com -->
    <title>g4996</title>
    <desc>Created with Sketch.</desc>
    <g id="Page-1" stroke="none" stroke-width="1" fill="none" fill-rule="evenodd">
        <g id="fond" transform="translate(-176.000000, 0.000000)" fill="#FAAA36" fill-rule="nonzero">
            <g id="g4996" transform="translate(176.745996, 0.897203)">
                <g id="g4921" transform="translate(82.809839, 57.597395)">
                    <g id="g4919">
                        <path d="M9.02062144,0.133234729 C8.1262317,0.133234729 7.40115657,0.858309858 7.40115657,1.75269959 C7.40115657,2.88660755 6.47872886,3.80903527 5.3448209,3.80903527 C4.21113029,3.80903527 3.28848523,2.88660755 3.28848523,1.75269959 C3.28848523,0.85809251 2.5634101,0.133234729 1.66902036,0.133234729 C0.774630624,0.133234729 0.0495554945,0.858309858 0.0495554945,1.75269959 C0.0495554945,4.67256149 2.42517635,7.047965 5.3448209,7.047965 C8.26446545,7.047965 10.6400863,4.67234414 10.6400863,1.75269959 C10.6400863,0.857875161 9.91501117,0.133234729 9.02062144,0.133234729 L9.02062144,0.133234729 Z" id="path4917"></path>
                    </g>
                </g>
                <g id="g4927">
                    <g id="g4925">
                        <path d="M107.032044,57.9951429 L102.473807,56.5349946 C101.890009,56.3478575 101.429882,55.8818619 101.243179,55.2882827 C100.282498,52.233882 98.8327827,49.3664011 96.9342421,46.7651724 C96.0689771,45.5795354 95.1067746,44.4473663 94.0556765,43.3695343 C94.7281532,40.4194609 95.0937337,37.0807681 95.0463517,34.1963341 C94.9785389,30.0699698 94.1539181,27.6497924 92.5255419,26.7969163 C91.6485401,26.3370065 88.9794985,24.9398893 74.5329851,31.5529397 C74.1908783,31.7094307 73.8713758,31.902219 73.5755643,32.1230452 C72.6016249,31.8613574 71.6061681,31.619231 70.6046255,31.4018824 C70.483997,31.3755832 70.3596735,31.3523269 70.2381756,31.3266797 C71.4088155,28.7693554 72.092377,25.9918569 72.2208301,23.1245933 C72.2608222,22.2308556 71.5690015,21.4740476 70.6752638,21.4342728 C69.7839169,21.3899337 69.024718,22.0858841 68.9849432,22.9796218 C68.7738977,27.6941316 66.8181945,32.1300004 63.4784149,35.4699972 C61.4829369,37.4654753 59.1464388,38.9149735 56.6562752,39.8278379 C52.3377747,39.2218698 47.9390725,39.2218698 43.620572,39.8278379 C41.130191,38.9149735 38.7939103,37.4654753 36.7984322,35.4699972 C33.2352183,31.9067833 31.2727772,27.1692345 31.2727772,22.1300059 C31.2727772,17.0905598 33.2352183,12.3532284 36.7984322,8.79001451 C40.3616462,5.22658323 45.0994123,3.26414218 50.1384236,3.26414218 C55.1774349,3.26414218 59.915201,5.22658323 63.4784149,8.79001451 C64.9103079,10.2219075 66.093554,11.8559347 66.9953336,13.6462356 C67.397646,14.4452093 68.3715853,14.7668853 69.1703417,14.3643556 C69.9693153,13.9622606 70.290774,12.9883212 69.8884616,12.1895649 C68.8314951,10.0901942 67.4454627,8.17600454 65.7690525,6.49937698 C61.5940021,2.32432657 56.0429173,0.0249950959 50.1386409,0.0249950959 C44.2343646,0.0249950959 38.6832798,2.32432657 34.5082294,6.49937698 C30.333179,10.6746447 28.0338475,16.2255122 28.0338475,22.1297885 C28.0338475,28.0340649 30.333179,33.5851496 34.5082294,37.7602001 C35.7125583,38.964529 37.022736,40.0001953 38.4085511,40.8678512 C38.4089858,40.8678512 38.4094205,40.8676338 38.4098552,40.8676338 C37.4028789,41.1293216 36.4035097,41.423177 35.4152254,41.753547 C34.5669135,42.037187 34.1091773,42.9546157 34.3928173,43.8031448 C34.6762399,44.6514567 35.5941033,45.1091929 36.4421978,44.8257703 C45.2743779,41.8730887 55.0029039,41.8730887 63.8350841,44.8257703 C64.0054854,44.8827156 64.178495,44.9096669 64.348679,44.9096669 C65.0261548,44.9096669 65.65777,44.4810553 65.8844646,43.8031448 C66.1681046,42.954833 65.7103683,42.037187 64.8620565,41.753547 C63.8737722,41.423177 62.874403,41.1291043 61.8674267,40.8676338 C61.8678614,40.8676338 61.8682961,40.8678512 61.8687308,40.8678512 C63.2547632,40.0001953 64.5647235,38.964529 65.7690525,37.7602001 C66.8344956,36.6947569 67.7749633,35.5312895 68.5915422,34.294793 C69.0379763,34.3815151 69.4811502,34.4723669 69.9178037,34.5671309 C70.4994287,34.6934105 71.0784455,34.829036 71.652246,34.9713994 C71.6342061,35.0418204 71.6157314,35.112024 71.6007344,35.1835317 C70.8108893,38.9317093 70.8621836,42.2467111 71.7530958,45.0359464 C72.5538082,47.5430632 73.9989595,49.5741865 76.0479053,51.0732402 C78.4628663,52.8398501 81.3783812,53.6029612 84.0193848,53.6029612 C86.0070382,53.6029612 87.8395048,53.1704374 89.1853277,52.4081956 C90.7076377,51.5459735 91.9830397,49.7291561 92.9926242,47.0014304 C93.4592718,47.5461061 93.9015763,48.1040401 94.318451,48.6752324 C96.0087715,50.990865 97.2991705,53.542973 98.1537855,56.2602659 C98.6556435,57.8562572 99.901486,59.1120977 101.486175,59.6200415 L106.044411,61.0801898 C107.240481,61.4633755 108.044019,62.5642465 108.044019,63.820087 L108.044019,71.3783867 C108.044019,72.6342272 107.240481,73.7350982 106.044411,74.1182839 L98.7004173,76.4706484 C97.5254305,76.8473137 96.5310604,77.6547639 95.9005319,78.7445501 C93.0152284,83.7309631 88.4789446,87.8573274 82.4168731,91.0091003 C81.7165757,91.373594 81.2314535,92.0254226 81.0853952,92.7978798 L78.733248,105.25261 C78.6682607,105.595804 78.3676675,105.844668 78.0183883,105.844668 L70.370541,105.844668 C70.0212617,105.844668 69.7206685,105.595586 69.6556812,105.25261 L68.3528933,98.3693953 C68.0964219,97.0150958 66.8262364,96.1154897 65.4591133,96.322623 C62.1647596,96.8207861 58.7702083,97.0731279 55.3702232,97.0731279 C52.8407195,97.0731279 50.3436007,96.9320686 47.9477664,96.653645 C46.6230264,96.5012836 45.3889207,97.4043673 45.1413605,98.7123715 L43.9033426,105.25261 C43.8383553,105.595804 43.5377621,105.844668 43.1884828,105.844668 L35.5406355,105.844668 C35.1913562,105.844668 34.890763,105.595586 34.8249064,105.247394 L32.5601334,93.4840495 C32.4142924,92.7261547 31.9382988,92.0817159 31.2534332,91.7159182 C20.9198085,86.1993918 15.4578367,76.9829392 15.4578367,65.0635387 C15.4578367,59.041242 16.7754043,53.7159825 19.3738075,49.2351226 C21.7985492,45.0535517 25.3400282,41.5961866 29.8997858,38.9586606 C30.6739817,38.510705 30.938495,37.5200298 30.4907568,36.7456165 C30.0430185,35.9714206 29.0523433,35.707342 28.2779301,36.1546455 C19.4364039,41.2692942 14.1037545,49.1599199 12.6355643,59.1818666 L12.6355643,59.1816493 C12.4797254,59.1675216 12.323669,59.154046 12.1682647,59.1379622 C12.1965201,58.0566526 12.0009063,56.9655623 11.5749029,55.9066397 C10.6353046,53.571011 8.70524853,51.8852548 6.6576068,51.6120475 C5.04401035,51.3960029 3.50844207,52.0810859 2.44278159,53.4890705 C0.897649966,55.5308438 1.14955706,57.1466138 1.63272313,58.1425053 C2.44843265,59.8232625 4.54519518,61.0121597 8.02472988,61.7596217 C7.92909647,61.9028545 7.82389971,62.0467393 7.70870492,62.1912762 C5.65280395,64.7696833 3.23067048,65.3397889 1.65793558,65.393474 C0.737246655,65.4245548 0,66.1637576 0,67.0850986 L0,67.0929232 C0,68.0016579 0.717033229,68.7428168 1.62489858,68.7843304 C1.74118012,68.7897641 1.86267802,68.7925897 1.98917494,68.7925897 C3.97921927,68.7925897 7.17315783,68.0586033 10.2416862,64.2108799 C10.7261564,63.6036078 11.1208615,62.9628639 11.4242803,62.3008199 C11.7298725,62.3353783 12.0235105,62.3649378 12.3047597,62.3910196 C12.3047597,62.3903676 12.3047597,62.3899329 12.304977,62.3892808 C12.2497705,63.2669347 12.2191243,64.1574122 12.2191243,65.0635387 C12.2191243,71.8074329 13.8268524,77.8203836 16.9973173,82.936119 C19.9206567,87.652585 24.1061399,91.5144359 29.4416148,94.4186487 L31.6433567,105.854666 C31.9974177,107.725603 33.6364439,109.083598 35.5406355,109.083598 L43.1884828,109.083598 C45.0926744,109.083598 46.7317007,107.725603 47.0857617,105.854666 L48.2051073,99.9410435 C50.5298685,100.1873 52.9367876,100.312058 55.3700058,100.312058 C58.7084812,100.312058 62.0430444,100.079495 65.2928416,99.6204542 L66.4728274,105.855101 C66.8271057,107.726038 68.466132,109.083815 70.3701063,109.083815 L78.0179536,109.083815 C79.9221452,109.083815 81.5611714,107.72582 81.9154497,105.854231 L84.2056526,93.728132 C90.6756875,90.3068468 95.5525567,85.8125112 98.7036776,80.3666232 C98.9308069,79.9740915 99.2805209,79.6861045 99.688267,79.555478 L107.032044,77.2031134 C109.574371,76.3882733 111.282514,74.0476456 111.282514,71.377952 L111.282514,63.8196523 C111.282514,61.1501761 109.574371,58.8095484 107.032044,57.9951429 Z M91.5642088,38.7473977 C90.9408528,44.0780909 89.2687896,48.6380658 87.5886844,49.5896182 C85.6790591,50.6713625 81.2701416,50.8802346 77.9599215,48.4587531 C74.6457891,46.0344462 73.5427446,41.6748668 74.7696778,35.8512268 C74.7696778,35.8510094 74.7696778,35.8510094 74.7696778,35.8510094 C74.8929145,35.2661242 75.3084852,34.7601365 75.8811989,34.498014 C83.9891733,30.7865683 88.6636909,29.572676 90.4003067,29.572676 C90.6624292,29.572676 90.8576083,29.6002793 90.9875828,29.6511389 C91.5092196,30.2071168 92.1934332,33.3675836 91.5642088,38.7473977 Z M4.54715132,56.7282176 C4.3795755,56.3826332 4.77515006,55.7751437 5.02597041,55.4434697 C5.42350111,54.9183553 5.78973361,54.8109851 6.06641845,54.8109851 C6.12488524,54.8109851 6.17943975,54.8157667 6.22942994,54.8225046 C6.97406645,54.9218329 8.01734002,55.7412373 8.57005766,57.1150982 C8.70024951,57.438513 8.86934677,57.9742775 8.90890422,58.6424073 C6.6669528,58.1779332 4.92512064,57.5082819 4.54715132,56.7282176 L4.54715132,56.7282176 Z" id="path4923"></path>
                    </g>
                </g>
                <g id="g4933" transform="translate(43.904429, 10.215387)">
                    <g id="g4931">
                        <path d="M7.80672917,10.0582439 L7.80672917,4.26285927 C9.8052501,4.40565734 10.5477131,5.31917376 11.2327961,5.31917376 C12.0893672,5.31917376 12.4890714,4.23438659 12.4890714,3.69188434 C12.4890714,2.29281101 9.7480874,1.69336341 7.80672917,1.63620071 L7.80672917,0.865047667 C7.80672917,0.522506179 7.37833496,0.208437365 6.9501581,0.208437365 C6.46460119,0.208437365 6.12205971,0.522506179 6.12205971,0.865047667 L6.12205971,1.69292871 C3.40976578,1.97852485 0.69747185,3.40607085 0.69747185,7.00340852 C0.69747185,10.6579089 3.55256385,11.6857507 6.12205971,12.5992671 L6.12205971,19.3086029 C3.20980501,19.0801695 2.43908666,17.0816485 1.49688022,17.0816485 C0.783107222,17.0816485 0.183659618,18.023855 0.183659618,18.7091553 C0.183659618,20.1080113 2.58188473,22.0208968 6.12205971,22.0780595 L6.12205971,22.0780595 L6.12205971,22.9631033 C6.12205971,23.3056448 6.46481854,23.6197136 6.9501581,23.6197136 C7.37855231,23.6197136 7.80672917,23.3056448 7.80672917,22.9631033 L7.80672917,21.9924242 C10.8902546,21.56403 13.0028836,19.6226717 13.0028836,16.1109694 C13.0028836,12.228253 10.2905897,10.9717604 7.80672917,10.0582439 L7.80672917,10.0582439 Z M6.29333045,9.51595903 C4.78014908,8.9449841 3.55256385,8.3455365 3.55256385,6.71824708 C3.55256385,5.23353838 4.69451371,4.51976538 6.29333045,4.32002197 L6.29333045,9.51595903 Z M7.63524108,19.2514402 L7.63524108,13.2274048 C9.03409705,13.8268524 10.1475742,14.6262607 10.1475742,16.4248209 C10.1475742,18.052545 9.17689512,18.9660614 7.63524108,19.2514402 Z" id="path4929"></path>
                    </g>
                </g>
            </g>
        </g>
    </g>
</svg>