<?xml version="1.0" encoding="UTF-8"?>
<svg width="142px" height="146px" viewBox="0 0 142 146" version="1.1" xmlns="http://www.w3.org/2000/svg" xmlns:xlink="http://www.w3.org/1999/xlink">
    <!-- Generator: Sketch 54.1 (76490) - https://sketchapp.com -->
    <title>surface1</title>
    <desc>Created with Sketch.</desc>
    <g id="Page-1" stroke="none" stroke-width="1" fill="none" fill-rule="evenodd">
        <g id="bank" transform="translate(-153.000000, 0.000000)" fill="#FAAA36" fill-rule="nonzero">
            <g id="surface1" transform="translate(153.311666, 0.935808)">
                <path d="M2.67661316,39.8516899 C2.62416788,40.1367991 2.59460779,40.4257261 2.58507242,40.7146506 L2.58507242,46.6495419 C2.59270081,49.0953958 4.1117049,51.2818842 6.40308411,52.1410343 L6.40308411,60.8736376 C6.41357346,63.7972218 8.71258058,66.2001663 11.6323489,66.3384294 L11.6323489,116.787866 C8.71258058,116.927084 6.41357322,119.330029 6.40308411,122.252658 L6.40308411,130.959518 C4.10693722,131.841551 2.58888661,134.04425 2.58507242,136.5025 L2.58507242,142.307709 C2.58507242,143.389986 3.46424482,144.268206 4.54652342,144.268206 L136.796192,144.268206 C137.878472,144.268206 138.75669,143.389986 138.75669,142.307709 L138.75669,136.5025 C138.752882,134.043296 137.234826,131.840596 134.939634,130.959518 L134.939634,122.201166 C134.929137,119.277584 132.629182,116.87464 129.710368,116.736374 L129.710368,66.3384294 C132.629182,66.2001663 134.929144,63.7972218 134.939634,60.8736376 L134.939634,52.1410343 C137.230059,51.2818842 138.749061,49.0953958 138.75669,46.6495419 L138.75669,40.753747 C138.748097,40.4648201 138.717596,40.1758955 138.665149,39.8907839 C139.651121,40.3275089 140.80396,39.8831678 141.240688,38.8971861 C141.677413,37.9121687 141.233072,36.759329 140.248042,36.3216495 L71.5734149,0.226944873 C71.0003332,-0.0753304617 70.3156842,-0.0753304617 69.7426001,0.226944873 L1.06892879,36.2825531 C0.110611727,36.7888881 -0.256504721,37.9741503 0.247922837,38.9324671 C0.709440735,39.8078261 1.75071665,40.2025961 2.67661316,39.8516899 Z M10.3250326,55.539483 L10.3250326,52.5195931 L32.9413161,52.5195931 L32.9413161,55.5137369 L10.3250326,55.539483 Z M60.6829278,66.3517797 L60.6829278,116.787866 C57.7631614,116.927084 55.4641536,119.330029 55.4536642,122.252658 L55.4536642,130.593355 L36.836565,130.593355 L36.836565,122.252658 C36.8260683,119.330029 34.5270702,116.927084 31.6073014,116.787866 L31.6073014,66.3384294 C34.5270702,66.2001663 36.8260756,63.7972218 36.836565,60.8736376 L36.836565,52.5195931 L55.4269636,52.5195931 L55.4269636,60.8612418 C55.4317237,63.7895935 57.7326478,66.1982573 60.6571816,66.3384294 L60.6829278,66.3517797 Z M59.3756113,55.539483 L59.3756113,52.5195931 L81.9928504,52.5195931 L81.9928504,55.5137369 L59.3756113,55.539483 Z M109.734462,66.3517797 L109.734462,116.787866 C106.814693,116.927084 104.514733,119.330029 104.504244,122.252658 L104.504244,130.593355 L85.8880993,130.593355 L85.8880993,122.252658 C85.8776026,119.330029 83.5776501,116.927084 80.6588333,116.787866 L80.6588333,66.3384294 C83.5776501,66.2001663 85.87761,63.7972218 85.8880993,60.8736376 L85.8880993,52.5195931 L104.478498,52.5195931 L104.478498,60.8612418 C104.482306,63.7895935 106.783228,66.1982573 109.707761,66.3384294 L109.734462,66.3517797 Z M108.427146,55.539483 L108.427146,52.5195931 L131.04343,52.5195931 L131.04343,55.5137369 L108.427146,55.539483 Z M131.04343,127.600163 L131.04343,130.593355 L108.400447,130.593355 L108.400447,127.600163 L131.04343,127.600163 Z M81.9928504,127.600163 L81.9928504,130.593355 L59.3498676,130.593355 L59.3498676,127.600163 L81.9928504,127.600163 Z M62.6176791,62.4555764 L60.918456,62.4555764 C60.0516799,62.4555764 59.3498676,61.753764 59.3498676,60.8869879 L59.3498676,59.4614325 L81.9661498,59.4614325 L81.9661498,60.8869879 C81.9661498,61.753764 81.2643375,62.4555764 80.3975614,62.4555764 L62.6176791,62.4555764 Z M76.7502366,66.3775258 L76.7502366,116.76212 L64.5791311,116.76212 L64.5791311,66.3775258 C64.5791311,66.3775258 76.7502366,66.3775258 76.7502366,66.3775258 Z M62.6176791,120.68407 L80.3975614,120.68407 C81.2643375,120.68407 81.9661498,121.385882 81.9661498,122.252658 L81.9661498,123.678214 L59.3498676,123.678214 L59.3498676,122.252658 C59.3498676,121.385882 60.0516799,120.68407 60.918456,120.68407 L62.6176791,120.68407 Z M32.91557,127.600163 L32.91557,130.593355 L10.2983332,130.593355 L10.2983332,127.600163 L32.91557,127.600163 Z M10.2983333,60.9260844 L10.2982698,59.4614325 L32.91557,59.4614325 L32.91557,60.8869879 C32.91557,61.753764 32.2137576,62.4555764 31.3460295,62.4555764 L11.8278264,62.4555764 C10.971539,62.4346074 10.2907049,61.7299268 10.2983333,60.8736376 L10.2983333,60.9260844 Z M27.6863064,66.4166198 L27.6863064,116.76212 L15.527598,116.76212 L15.527598,66.3775258 L27.6863064,66.4166198 Z M10.2983333,122.292707 C10.2983333,121.424976 11.0001456,120.723164 11.8669219,120.723164 L31.3460295,120.723164 C32.2137576,120.723164 32.91557,121.424976 32.91557,122.292707 L32.91557,123.71731 L10.2983333,123.71731 L10.2983333,122.292707 Z M134.834743,136.581645 L134.834743,140.42445 L6.48127504,140.42445 L6.48127504,136.581645 C6.48127504,135.462177 7.38810056,134.554398 8.5075674,134.554398 L132.80845,134.554398 C133.911707,134.554398 134.813764,135.438338 134.834743,136.541597 C134.834743,136.541597 134.834743,136.581645 134.834743,136.581645 L134.834743,136.581645 Z M131.017684,122.292707 L131.017684,123.71731 L108.400447,123.71731 L108.400447,122.292707 C108.400447,121.424976 109.10226,120.723164 109.969036,120.723164 L129.48819,120.723164 C130.324455,120.744133 130.996705,121.416396 131.017684,122.252658 L131.017684,122.292707 Z M113.629711,116.801217 L113.629711,66.3775258 L125.800816,66.3775258 L125.800816,116.76212 L113.629711,116.801217 Z M131.017684,60.9260844 C131.017684,61.7928605 130.315872,62.4946728 129.449096,62.4946728 L109.982384,62.4946728 C109.115608,62.4946728 108.413795,61.7928605 108.413795,60.9260844 L108.413795,59.4614325 L131.03008,59.4614325 L131.017684,60.9260844 Z M70.6580075,4.14889339 L129.056232,34.8446019 L12.2597843,34.8446019 L70.6580075,4.14889339 Z M6.48127504,40.753747 C6.48127504,39.671467 7.3594942,38.7932495 8.44177256,38.7932495 L132.874245,38.7932495 C133.956523,38.7932495 134.834743,39.671467 134.834743,40.753747 L134.834743,46.6895904 C134.834743,47.7718704 133.956523,48.6500879 132.874245,48.6500879 L8.44177256,48.6500879 C7.3594942,48.6500879 6.48127504,47.7718704 6.48127504,46.6895904 L6.48127504,40.753747 Z" id="path5238"></path>
            </g>
        </g>
    </g>
</svg>