<?xml version="1.0" encoding="UTF-8"?>
<svg width="137px" height="137px" viewBox="0 0 137 137" version="1.1" xmlns="http://www.w3.org/2000/svg" xmlns:xlink="http://www.w3.org/1999/xlink">
    <!-- Generator: Sketch 54.1 (76490) - https://sketchapp.com -->
    <title>g4756</title>
    <desc>Created with Sketch.</desc>
    <g id="Page-1" stroke="none" stroke-width="1" fill="none" fill-rule="evenodd">
        <g id="tax" transform="translate(0.000000, -20.000000)" fill="#FAAB36" fill-rule="nonzero">
            <g id="g4756" transform="translate(0.986310, 20.632280)">
                <g id="g4609" transform="translate(106.627082, 39.158333)">
                    <g id="g4607">
                        <path d="M4.74556661,0.78422499 C4.25397078,0.292099996 3.57134579,0.00926041655 2.87575621,0.00926041655 C2.18016664,0.00926041655 1.49780623,0.292099996 1.00568124,0.78422499 C0.513820827,1.27634998 0.230716664,1.95871039 0.230716664,2.65429997 C0.230716664,3.34988954 0.513556244,4.03224995 1.00568124,4.52411036 C1.49754165,5.01597077 2.18016664,5.29933952 2.87575621,5.29933952 C3.57134579,5.29933952 4.2537062,5.01623535 4.74556661,4.52411036 C5.23742702,4.03251453 5.52079576,3.34988954 5.52079576,2.65429997 C5.52079576,1.95871039 5.2376916,1.2760854 4.74556661,0.78422499 Z" id="path4605"></path>
                    </g>
                </g>
                <g id="g4615">
                    <g id="g4613">
                        <path d="M109.502838,34.0098058 C110.963338,34.0098058 112.147878,32.8252663 112.147878,31.3647663 L112.147878,7.9565499 C112.147878,3.58113537 108.588174,0.0216958331 104.212759,0.0216958331 L7.93511865,0.0216958331 C3.55970412,0.0214312497 0,3.58113537 0,7.9565499 L0,127.51038 C0,131.885794 3.55970412,135.445498 7.93511865,135.445498 L104.213024,135.445498 C108.588438,135.445498 112.148142,131.885794 112.148142,127.51038 L112.148142,115.630588 C112.148142,114.170088 110.963603,112.985549 109.503103,112.985549 C108.042603,112.985549 106.858063,114.170088 106.858063,115.630588 L106.858063,127.51038 C106.858063,128.968763 105.671407,130.155419 104.213024,130.155419 L7.93511865,130.155419 C6.47673534,130.155419 5.2900791,128.968763 5.2900791,127.51038 L5.2900791,7.9565499 C5.2900791,6.49816658 6.47673534,5.31151035 7.93511865,5.31151035 L104.213024,5.31151035 C105.671407,5.31151035 106.858063,6.49816658 106.858063,7.9565499 L106.858063,31.3647663 C106.857799,32.8252663 108.042338,34.0098058 109.502838,34.0098058 L109.502838,34.0098058 Z" id="path4611"></path>
                    </g>
                </g>
                <g id="g4621" transform="translate(18.256250, 15.345833)">
                    <g id="g4619">
                        <path d="M114.886315,91.0579405 L101.242017,77.4136428 C103.591253,73.2194678 104.933749,68.3884408 104.933749,63.2489096 C104.933749,47.2151598 91.8895259,34.1706725 75.8555115,34.1706725 C75.6954386,34.1706725 75.5361595,34.1741121 75.3768803,34.1767579 L75.3768803,19.6230873 C75.3768803,18.1625873 74.1923407,16.9780477 72.7318408,16.9780477 L57.2732951,16.9780477 L57.2732951,2.69531038 C57.2732951,1.2348104 56.0887555,0.0502708327 54.6282556,0.0502708327 L36.524935,0.0502708327 C35.064435,0.0502708327 33.8798954,1.2348104 33.8798954,2.69531038 L33.8798954,18.5652831 L18.4213498,18.5652831 C16.9608498,18.5652831 15.7763102,19.7498227 15.7763102,21.2103226 L15.7763102,35.4933246 L2.90380205,35.4933246 C1.44330207,35.4933246 0.258762497,36.6778641 0.258762497,38.1383641 L0.258762497,52.421366 C0.258762497,53.881866 1.44330207,55.0664056 2.90380205,55.0664056 L47.9509661,55.0664056 C47.1881723,57.6632909 46.7770098,60.4088722 46.7770098,63.2491742 C46.7770098,79.282924 59.8212326,92.3274113 75.855247,92.3274113 C80.9947781,92.3274113 85.8260698,90.9854447 90.0199801,88.6356801 L103.574849,102.190284 C105.171609,103.787309 107.247265,104.592172 109.31419,104.591907 C111.243003,104.591907 113.164142,103.891026 114.67994,102.479209 C116.272467,100.99622 117.170463,98.9827404 117.209357,96.8107759 C117.247721,94.6372238 116.422751,92.5946405 114.886315,91.0579405 L114.886315,91.0579405 Z M15.7760456,49.7763265 L5.5488416,49.7763265 L5.5488416,40.7834037 L15.7763102,40.7834037 L15.7763102,49.7763265 L15.7760456,49.7763265 Z M33.8796308,49.7763265 L21.0661247,49.7763265 L21.0661247,38.1383641 L21.0661247,23.8553622 L33.8796308,23.8553622 L33.8796308,49.7763265 Z M39.1694453,49.7763265 L39.1694453,21.2103226 L39.1694453,5.34034993 L51.9829514,5.34034993 L51.9829514,19.6233518 L51.9829514,29.1999455 L51.9829514,32.8149475 C51.9829514,34.2754475 53.167491,35.4599871 54.627991,35.4599871 C56.088491,35.4599871 57.2730305,34.2754475 57.2730305,32.8149475 L57.2730305,29.1999455 L57.2730305,22.2683914 L70.0868012,22.2683914 L70.0868012,34.7464058 C61.3965617,36.5024454 54.0998827,42.1457432 50.0932973,49.7763265 L39.1694453,49.7763265 Z M75.855247,87.0373322 C62.7385284,87.0373322 52.0668243,76.3656282 52.0668243,63.2489096 C52.0668243,50.132191 62.7382638,39.460487 75.855247,39.460487 C88.9722301,39.460487 99.6436696,50.1319265 99.6436696,63.2489096 C99.6436696,76.3658928 88.9722301,87.0373322 75.855247,87.0373322 Z M111.074463,98.6078258 C110.046028,99.5656175 108.360367,99.4944446 107.315528,98.4493404 L94.4512217,85.5850343 C95.8077405,84.4534114 97.0602779,83.2014031 98.1919008,81.8443552 L111.145901,94.7980905 C111.658134,95.3103238 111.933301,95.9913613 111.920336,96.7157904 C111.906842,97.4404842 111.607069,98.1119967 111.074463,98.6078258 L111.074463,98.6078258 Z" id="path4617"></path>
                    </g>
                </g>
                <g id="g4627" transform="translate(82.814582, 64.558333)">
                    <g id="g4625">
                        <path d="M18.1829602,0.511968744 C16.9111081,-0.205845831 15.2974144,0.24235833 14.5793352,1.51500415 L0.357452079,26.7070413 C-0.360627079,27.979158 0.0881062489,29.5925871 1.36048748,30.3106663 C1.77138539,30.5427059 2.21773747,30.6530371 2.65826872,30.6530371 C3.58113537,30.6530371 4.47780828,30.1691142 4.96384785,29.3078955 L19.185731,4.11585828 C19.9040747,2.84321246 19.4550768,1.2300479 18.1829602,0.511968744 L18.1829602,0.511968744 Z" id="path4623"></path>
                    </g>
                </g>
                <g id="g4633" transform="translate(95.249999, 80.697916)">
                    <g id="g4631">
                        <path d="M8.10339365,0.155045831 C3.72797912,0.155045831 0.168274998,3.71474995 0.168274998,8.09016448 C0.168274998,12.465579 3.72797912,16.0250185 8.10339365,16.0250185 C12.4788082,16.0250185 16.0382477,12.4653144 16.0382477,8.09016448 C16.0385123,3.71448537 12.4788082,0.155045831 8.10339365,0.155045831 Z M8.10339365,10.7349394 C6.64501033,10.7349394 5.4583541,9.54828321 5.4583541,8.0898999 C5.4583541,6.63151658 6.64501033,5.44486035 8.10339365,5.44486035 C9.56177696,5.44486035 10.7484332,6.63151658 10.7484332,8.0898999 C10.7484332,9.54828321 9.56204155,10.7349394 8.10339365,10.7349394 Z" id="path4629"></path>
                    </g>
                </g>
                <g id="g4639" transform="translate(76.729166, 60.324999)">
                    <g id="g4637">
                        <path d="M8.14043531,0.141552082 C3.76502079,0.141552082 0.205316664,3.7012562 0.205316664,8.07667073 C0.205316664,12.4520853 3.76502079,16.0117894 8.14043531,16.0117894 C12.5158498,16.0117894 16.0752894,12.4520853 16.0752894,8.07667073 C16.0752894,3.7012562 12.5155853,0.141552082 8.14043531,0.141552082 L8.14043531,0.141552082 Z M8.14043531,10.7214457 C6.682052,10.7214457 5.49539576,9.53478946 5.49539576,8.07640615 C5.49539576,6.61802283 6.682052,5.4313666 8.14043531,5.4313666 C9.59881863,5.4313666 10.7854749,6.61802283 10.7854749,8.07640615 C10.7854749,9.53478946 9.59881863,10.7214457 8.14043531,10.7214457 Z" id="path4635"></path>
                    </g>
                </g>
                <g id="g4645" transform="translate(14.022916, 115.622915)">
                    <g id="g4643">
                        <path d="M76.136499,0.24950208 L2.90512496,0.24950208 C1.44462498,0.24950208 0.260085413,1.43404165 0.260085413,2.89454163 C0.260085413,4.35504161 1.44462498,5.53958118 2.90512496,5.53958118 L76.136499,5.53958118 C77.596999,5.53958118 78.7815386,4.35504161 78.7815386,2.89454163 C78.7815386,1.43404165 77.596999,0.24950208 76.136499,0.24950208 Z" id="path4641"></path>
                    </g>
                </g>
                <g id="g4651" transform="translate(36.777083, 100.806249)">
                    <g id="g4649">
                        <path d="M19.296856,0.25426458 L2.8966583,0.25426458 C1.43615832,0.25426458 0.251618747,1.43880415 0.251618747,2.89930413 C0.251618747,4.35980411 1.43615832,5.54434368 2.8966583,5.54434368 L19.296856,5.54434368 C20.757356,5.54434368 21.9418956,4.35980411 21.9418956,2.89930413 C21.9418956,1.43880415 20.757356,0.25426458 19.296856,0.25426458 Z" id="path4647"></path>
                    </g>
                </g>
                <g id="g4657" transform="translate(62.970833, 100.806249)">
                    <g id="g4655">
                        <path d="M4.67227702,1.02922915 C4.18041661,0.537368743 3.49779162,0.25426458 2.80220205,0.25426458 C2.10661247,0.25426458 1.42425207,0.53710416 0.932127072,1.02922915 C0.437620828,1.52108956 0.157162498,2.20371456 0.157162498,2.89930413 C0.157162498,3.5948937 0.437620828,4.27725411 0.932127072,4.76911452 C1.42398748,5.26097493 2.10423122,5.54434368 2.80220205,5.54434368 C3.49779162,5.54434368 4.18015203,5.26123952 4.67227702,4.76911452 C5.16387285,4.2775187 5.4472416,3.5948937 5.4472416,2.89930413 C5.4472416,2.20344997 5.16440202,1.52108956 4.67227702,1.02922915 L4.67227702,1.02922915 Z" id="path4653"></path>
                    </g>
                </g>
                <g id="g4663" transform="translate(36.777083, 85.989582)">
                    <g id="g4661">
                        <path d="M19.296856,0.258762497 L2.8966583,0.258762497 C1.43615832,0.258762497 0.251618747,1.44330207 0.251618747,2.90380205 C0.251618747,4.36430203 1.43615832,5.5488416 2.8966583,5.5488416 L19.296856,5.5488416 C20.757356,5.5488416 21.9418956,4.36430203 21.9418956,2.90380205 C21.9418956,1.44330207 20.757356,0.258762497 19.296856,0.258762497 Z" id="path4659"></path>
                    </g>
                </g>
                <g id="g4669" transform="translate(14.022916, 80.168749)">
                    <g id="g4667">
                        <path d="M8.72410614,12.8217082 C6.97388741,12.8217082 5.55016451,11.6390207 5.55016451,10.1853999 C5.55016451,8.73177906 6.97388741,7.54935615 8.72410614,7.54935615 C10.4743249,7.54935615 11.8980478,8.73204364 11.8980478,10.1853999 C11.8980478,11.6458999 13.0825873,12.8304394 14.5430873,12.8304394 C16.0035873,12.8304394 17.1881269,11.6458999 17.1881269,10.1853999 C17.1881269,6.678877 14.7431123,3.69913954 11.3664999,2.65721038 C11.3392478,1.22025832 10.1676728,0.0627062492 8.72410614,0.0627062492 C7.28053949,0.0627062492 6.10869992,1.22025832 6.08171242,2.65721038 C2.70509997,3.69913954 0.260085413,6.678877 0.260085413,10.1853999 C0.260085413,14.5557873 4.0568562,18.1117873 8.72410614,18.1117873 C10.4743249,18.1117873 11.8980478,19.2944748 11.8980478,20.747831 C11.8980478,22.2011872 10.4743249,23.3838747 8.72410614,23.3838747 C6.97388741,23.3838747 5.55016451,22.2011872 5.55016451,20.747831 C5.55016451,19.287331 4.36562494,18.1027914 2.90512496,18.1027914 C1.44462498,18.1027914 0.260085413,19.287331 0.260085413,20.747831 C0.260085413,24.2532955 2.70377705,27.2325038 6.07906659,28.2752267 L6.07906659,28.4278913 C6.07906659,29.8883913 7.26360616,31.0729309 8.72410614,31.0729309 C10.1846061,31.0729309 11.3691457,29.8883913 11.3691457,28.4278913 L11.3691457,28.2752267 C14.7444352,27.2325038 17.1881269,24.2532955 17.1881269,20.747831 C17.1881269,16.3774435 13.3910915,12.8217082 8.72410614,12.8217082 Z" id="path4665"></path>
                    </g>
                </g>
            </g>
        </g>
    </g>
</svg>