<?xml version="1.0" encoding="UTF-8"?>
<svg width="186px" height="73px" viewBox="0 0 186 73" version="1.1" xmlns="http://www.w3.org/2000/svg" xmlns:xlink="http://www.w3.org/1999/xlink">
    <!-- Generator: Sketch 54.1 (76490) - https://sketchapp.com -->
    <title>fakedeposit-logo</title>
    <desc>Created with Sketch.</desc>
    <g id="Page-1" stroke="none" stroke-width="1" fill="none" fill-rule="evenodd">
        <g id="fakedeposit-logo" transform="translate(2.000000, 0.000000)" fill-rule="nonzero">
            <g id="g893" transform="translate(53.083537, 0.388394)" fill="#FFCC00">
                <path d="M1.97476489,9.41017002 C1.30838051,9.53706489 0.83238983,10.0130973 0.83238983,10.5525451 C0.83238983,11.1237326 1.30838051,11.5679932 1.97476489,11.6949201 L1.97476489,12.9007426 L1.97476489,20.9291079 L8.0039673,20.9291079 L8.0039673,13.5354097 L18.1584095,13.5354097 L18.1584095,9.09283648 L8.0039673,9.09283648 L8.0039673,4.61852344 L19.237321,4.61852344 L19.237321,0.1759823 L1.97476489,0.1759823 L1.97476489,9.41017002 Z" id="path853"></path>
                <path d="M33.2904169,7.25234689 C33.2904169,7.25234689 31.5768543,5.88785762 28.7209166,5.88785762 C23.5484955,5.88785762 21.0098849,9.88617034 21.0098849,13.4084827 C21.0098849,16.9307951 23.5484955,20.9291079 28.7209166,20.9291079 C31.5768543,20.9291079 33.2904169,19.5646186 33.2904169,19.5646186 L33.2904169,20.9291079 L38.3676379,20.9291079 L38.3676379,13.4084827 L38.3676379,5.88785762 L33.2904169,5.88785762 L33.2904169,7.25234689 Z M29.6728948,17.1212017 C27.7054718,17.1212017 26.0871092,15.6297533 26.0871092,13.4084827 C26.0871092,11.1871801 27.7054718,9.69576379 29.6728948,9.69576379 C31.6720511,9.69576379 33.2904169,11.1871801 33.2904169,13.4084827 C33.2904169,15.6297533 31.6720511,17.1212017 29.6728948,17.1212017 Z" id="path855"></path>
                <polygon id="path857" points="57.6551342 5.88785762 51.0547442 5.88785762 46.3265836 10.4890655 46.3265836 0.1759823 41.2493594 0.1759823 41.2493594 20.9291079 46.3265836 20.9291079 46.3265836 16.8990554 49.4363817 13.8844509 53.1173673 20.9291079 58.6388457 20.9291079 53.085634 10.3303988"></polygon>
                <path d="M66.9716366,5.88785762 C64.4012927,5.88785762 62.4338697,6.68115936 61.0059008,8.10912819 C59.577932,9.50535724 58.8163475,11.4093264 58.8163475,13.4084827 C58.8163475,15.4076391 59.577932,17.3115761 61.0059008,18.739545 C62.4338697,20.1358061 64.5599562,20.9291079 66.9081698,20.9291079 C71.5411368,20.9291079 73.6672234,18.4222435 74.3336078,17.3433159 L71.0334128,15.1854928 C71.0334128,15.1854928 69.9227711,17.1212017 67.6062908,17.1212017 C65.7975281,17.1212017 64.4647594,16.1374934 64.0522354,14.5825976 C64.0522354,14.5825976 64.0522354,14.5825976 64.0522354,14.5825976 L71.1920763,14.5825976 L72.9373723,14.5825976 L74.6826682,14.5825976 L74.6826682,12.8372952 C74.6826682,8.87072227 70.8112857,5.88785762 66.9716366,5.88785762 L66.9716366,5.88785762 Z M64.2426291,11.7266599 C64.2426291,10.7746593 65.3532708,9.69576379 66.9716366,9.69576379 C68.5265356,9.69576379 69.4467836,10.9015863 69.4467836,11.7266599 L64.2426291,11.7266599 Z" id="path859"></path>
            </g>
            <path d="M0.043293,44.18289 L0.043293,70.83944 L181.63884,70.83944 L181.63884,23.23217 L14.383414,23.23217 C14.4312536,23.2678089 14.4788424,23.3037831 14.526177,23.34009 C14.8514955,23.6143023 15.1628822,23.904629 15.459168,24.20998 C15.7549219,24.5145376 16.0352779,24.8336786 16.299188,25.16621 C16.5637067,25.4994696 16.8113754,25.845763 17.041264,26.20379 C17.270907,26.5609914 17.4825586,26.9294441 17.675427,27.30777 C17.8679277,27.6867772 18.0413507,28.0751758 18.195046,28.47151 C18.3490159,28.8674214 18.4831005,29.2707813 18.596798,29.68008 C18.7104341,30.0896481 18.8035157,30.5046431 18.875694,30.92351 C18.948215,31.3423424 18.9997427,31.7645398 19.030084,32.18852 C19.0512637,32.4890894 19.0617803,32.7903153 19.061614,33.09163 C19.0617846,33.5162992 19.040735,33.9407118 18.998544,34.36328 C18.9559528,34.7862102 18.8922352,35.2067456 18.80763,35.62331 C18.7231535,36.0400225 18.6178819,36.4522477 18.49221,36.85844 C18.3667147,37.2644512 18.2209961,37.6639333 18.0556,38.05539 C17.8900078,38.4467732 17.7049484,38.8296312 17.501115,39.20253 C17.2974404,39.5753018 17.0752613,39.9376605 16.835409,40.28825 C16.5952121,40.6395868 16.3375718,40.9786748 16.063456,41.30424 C15.7897341,41.6289519 15.4999571,41.9397828 15.195209,42.23557 C14.8901536,42.5319332 14.5704581,42.8128445 14.237322,43.07725 C13.9045659,43.341155 13.5588298,43.5882665 13.201407,43.81766 C12.8436656,44.0473536 12.4746581,44.259008 12.095768,44.45183 C11.7173334,44.644844 11.3294875,44.818821 10.933682,44.97311 C10.5372266,45.1271282 10.1333118,45.2612092 9.723453,45.37485 C9.31388547,45.4884907 8.89889079,45.581577 8.480024,45.65376 C8.06116315,45.7257247 7.63896558,45.7766984 7.215013,45.80649 C6.91501642,45.8281876 6.6143459,45.8392612 6.313566,45.83969 C5.8883152,45.839341 5.46334821,45.8177139 5.040259,45.77489 C4.6173572,45.7328457 4.1968224,45.6696802 3.78023,45.58563 C3.36407447,45.5010998 2.95240254,45.3958286 2.546754,45.27021 C2.14071409,45.1441706 1.74123352,44.9978978 1.34981,44.83194 C0.957895973,44.6669419 0.574482978,44.4824379 0.201009,44.27912 C0.148205702,44.2474015 0.0956329874,44.2153006 0.043295,44.18282 L0.043293,44.18289 Z" id="path965" stroke="#FFCC00" stroke-width="4.00602293" fill="#333333" stroke-linecap="round" stroke-linejoin="round"></path>
            <path d="M0.043293,44.18289 C0.0956309874,44.2153706 0.148203702,44.2474715 0.201007,44.27919 C0.574480652,44.4825079 0.957893312,44.6670119 1.349807,44.83201 C1.74123052,44.9979678 2.14071109,45.1442406 2.546751,45.27028 C2.95239954,45.3958986 3.36407147,45.5011698 3.780227,45.5857 C4.19681973,45.6697502 4.61735487,45.7329157 5.040257,45.77496 C5.46334587,45.8177839 5.88831253,45.8394109 6.313563,45.83976 C6.61434324,45.8393312 6.91501409,45.8282576 7.215011,45.80656 C7.63896324,45.7767683 8.06116048,45.7257947 8.480021,45.65383 C8.89888796,45.5816503 9.31388297,45.4885674 9.723451,45.37493 C10.13331,45.261286 10.5372248,45.1272016 10.93368,44.97318 C11.3294853,44.8188943 11.7173312,44.6449206 12.095766,44.45191 C12.4746564,44.2590848 12.8436638,44.047427 13.201405,43.81773 C13.5588278,43.5883365 13.9045639,43.341225 14.23732,43.07732 C14.5704558,42.8129145 14.8901509,42.5320032 15.195206,42.23564 C15.4999545,41.9398529 15.7897318,41.6290219 16.063454,41.30431 C16.3375698,40.9787448 16.5952101,40.6396568 16.835407,40.28832 C17.0752589,39.9377305 17.2974378,39.5753717 17.501112,39.2026 C17.7049457,38.8297012 17.8900055,38.4468432 18.055598,38.05546 C18.2209941,37.6640033 18.3667127,37.2645212 18.492208,36.85851 C18.6178792,36.452321 18.7231505,36.0400991 18.807627,35.62339 C18.8922329,35.2068223 18.9559508,34.7862836 18.998542,34.36335 C19.040733,33.9407818 19.0617826,33.5163692 19.061612,33.0917 C19.0617783,32.7903853 19.0512617,32.4891594 19.030082,32.18859 C18.9997403,31.7646097 18.9482123,31.3424123 18.875691,30.92358 C18.8035127,30.5047131 18.7104311,30.0897181 18.596795,29.68015 C18.4830975,29.2708513 18.3490129,28.8674914 18.195043,28.47158 C18.0413477,28.0752458 17.8679247,27.6868472 17.675424,27.30784 C17.4825553,26.9295175 17.2709037,26.5610681 17.041261,26.20387 C16.8113724,25.845843 16.5637037,25.4995496 16.299185,25.16629 C16.0352749,24.8337586 15.7549189,24.5146176 15.459165,24.21006 C15.1628798,23.9047056 14.8514934,23.6143756 14.526175,23.34016 C14.4788404,23.3038564 14.4312516,23.2678855 14.383412,23.23225 L0.043284,23.23225 L0.043293,44.18289 Z" id="rect887" stroke="#FFCC00" stroke-width="4.00602293" fill="#333333" stroke-linecap="round" stroke-linejoin="round"></path>
            <g id="text910" transform="translate(4.000000, 26.000000)" fill="#FFCC00">
                <path d="M4.19085,14.1847 C2.80695533,14.1215 1.473614,13.81186 0.190826,13.25578 L0.190826,10.10885 C0.923848,10.4816767 1.72006133,10.7944733 2.579466,11.04724 C3.43887133,11.2936867 4.19401033,11.41691 4.844883,11.41691 C5.382011,11.41691 5.77379833,11.35372 6.020245,11.22734 C6.27301167,11.0946333 6.399395,10.87662 6.399395,10.5733 C6.399395,10.3647733 6.307767,10.18784 6.124511,10.0425 C5.947575,9.89715333 5.64741533,9.73285333 5.224032,9.5496 C4.806968,9.36634667 4.24140367,9.14517667 3.527339,8.88609 C2.724807,8.58909 2.077094,8.25733333 1.5842,7.89082 C1.091306,7.51799333 0.731114,7.10409 0.503624,6.64911 C0.282454,6.18781 0.171869,5.61592667 0.171869,4.93346 C0.171869,3.8908 0.506784,3.07563 1.176614,2.48795 C1.84644467,1.90027 2.85119,1.53691667 4.19085,1.39789 L4.19085,0.09931 L6.152948,0.09931 L6.152948,1.37894 C7.41045933,1.44844667 8.67744933,1.75808333 9.953918,2.30785 L8.825949,5.00929 C7.50524633,4.41529 6.314086,4.11829 5.252468,4.11829 C4.746936,4.11829 4.389904,4.18148 4.181372,4.30786 C3.97915867,4.42792667 3.878052,4.60802333 3.878052,4.84815 C3.878052,5.05668333 3.95072233,5.23046 4.096063,5.36948 C4.247723,5.50218 4.50680833,5.65384 4.873319,5.82446 C5.23982967,5.98876 5.74852167,6.18149333 6.399395,6.40266 C7.72009767,6.87028 8.66797067,7.40425 9.243014,8.00457 C9.81805667,8.59857 10.105578,9.36634667 10.105578,10.3079 C10.105578,11.36952 9.76750333,12.2320833 9.091354,12.89559 C8.42152333,13.5591033 7.44205467,13.96985 6.152948,14.12783 L6.152948,15.95722 L4.19085,15.95722 L4.19085,14.1847 Z" id="path872"></path>
            </g>
            <path d="M181.63884,49.88925 C181.586507,49.856736 181.533939,49.8246018 181.48114,49.79285 C181.107666,49.5895355 180.724253,49.4050349 180.33234,49.24004 C179.940918,49.0740756 179.541439,48.9277961 179.1354,48.80175 C178.729751,48.6761144 178.318078,48.5708265 177.90192,48.48628 C177.485326,48.4022466 177.064791,48.3390977 176.64189,48.29707 C176.218801,48.2542126 175.793833,48.2325522 175.36858,48.23217 C175.067804,48.2325657 174.767135,48.2436059 174.46714,48.26527 C174.04319,48.2950186 173.620993,48.3459489 173.20213,48.41787 C172.783264,48.4900299 172.368269,48.5830928 171.9587,48.69671 C171.54884,48.8103573 171.144925,48.944445 170.74847,49.09847 C170.352663,49.2527556 169.964816,49.4267293 169.58638,49.61974 C169.207489,49.8125652 168.838482,50.024223 168.48074,50.25392 C168.123319,50.4833072 167.777585,50.730412 167.44483,50.99431 C167.111693,51.2587187 166.791996,51.5396333 166.48694,51.836 C166.182191,52.1317903 165.892413,52.4426246 165.61869,52.76734 C165.344575,53.0929052 165.086936,53.4319932 164.84674,53.78333 C164.606887,54.1339162 164.384706,54.4962716 164.18103,54.86904 C163.977199,55.2419356 163.792141,55.6247903 163.62655,56.01617 C163.461154,56.4076299 163.315435,56.8071154 163.18994,57.21313 C163.064272,57.6193192 162.959004,58.0315411 162.87453,58.44825 C162.789922,58.8648209 162.726202,59.285363 162.68361,59.7083 C162.641409,60.1308644 162.62035,60.5552736 162.62051,60.97994 C162.620334,61.2812543 162.63084,61.5824802 162.65201,61.88305 C162.682355,62.3070271 162.733886,62.7292211 162.80641,63.14805 C162.878583,63.56692 162.971659,63.9819183 163.08529,64.39149 C163.198987,64.800792 163.33307,65.2041553 163.48704,65.60007 C163.640736,65.9964042 163.814159,66.3848028 164.00666,66.76381 C164.199528,67.1421291 164.411179,67.5105751 164.64082,67.86777 C164.87071,68.2257971 165.11838,68.5720905 165.3829,68.90535 C165.64681,69.2378848 165.927166,69.5570292 166.22292,69.86159 C166.519205,70.166941 166.830592,70.4572677 167.15591,70.73148 C167.203244,70.7677936 167.250831,70.8037745 167.29867,70.83942 L181.63884,70.83942 L181.63884,49.88925 Z" id="rect887-7" stroke="#FFCC00" stroke-width="4.00602293" fill="#333333" stroke-linecap="round" stroke-linejoin="round"></path>
            <g id="text910-8" transform="translate(167.000000, 52.000000)" fill="#FFCC00">
                <path d="M4.78468,14.10807 C3.40078667,14.04487 2.06744667,13.7352333 0.78466,13.17916 L0.78466,10.03222 C1.51768,10.4050467 2.31389333,10.7178433 3.1733,10.97061 C4.0327,11.2170567 4.78783667,11.34028 5.43871,11.34028 C5.97583667,11.34028 6.36762667,11.27709 6.61408,11.15071 C6.86684,11.0180033 6.99322,10.79999 6.99322,10.49667 C6.99322,10.2881433 6.90159333,10.11121 6.71834,9.96587 C6.54140667,9.82052333 6.24124667,9.65622333 5.81786,9.47297 C5.4008,9.28971667 4.83523667,9.06854667 4.12117,8.80946 C3.31863667,8.51246 2.67092333,8.18070333 2.17803,7.81419 C1.68513667,7.44136333 1.32494333,7.02746 1.09745,6.57248 C0.876283333,6.11118 0.7657,5.53929667 0.7657,4.85683 C0.7657,3.81417 1.10061333,2.999 1.77044,2.41132 C2.44027333,1.82364 3.44502,1.46028667 4.78468,1.32126 L4.78468,0.02268 L6.74678,0.02268 L6.74678,1.30231 C8.00428667,1.37181667 9.27127667,1.68145333 10.54775,2.23122 L9.41978,4.93266 C8.09907333,4.33866 6.90791333,4.04166 5.8463,4.04166 C5.34076667,4.04166 4.98373333,4.10485 4.7752,4.23123 C4.57298667,4.35129667 4.47188,4.53139333 4.47188,4.77152 C4.47188,4.98005333 4.54455,5.15383 4.68989,5.29285 C4.84155,5.42555667 5.10063667,5.57721667 5.46715,5.74783 C5.83366333,5.91213 6.34235333,6.10486333 6.99322,6.32603 C8.31392667,6.79365 9.2618,7.32762 9.83684,7.92794 C10.4118867,8.52194 10.69941,9.28971667 10.69941,10.23127 C10.69941,11.29289 10.3613333,12.1554533 9.68518,12.81896 C9.01535333,13.4824733 8.03588667,13.89322 6.74678,14.0512 L6.74678,15.88059 L4.78468,15.88059 L4.78468,14.10807 Z" id="path868"></path>
            </g>
            <g id="g902" transform="translate(21.882642, 35.884007)" fill="#FFD42A">
                <path d="M18.3768476,3.66288426 C17.4248694,2.71091575 16.3142277,1.98106145 15.0766526,1.44161369 C13.8073473,0.90216594 12.4428452,0.61657218 11.0466097,0.61657218 L1.33642169,0.61657218 L1.33642169,9.8507599 C0.67003409,9.9776548 0.19404662,10.4536872 0.19404662,10.993135 C0.19404662,11.5643225 0.67003409,12.008583 1.33642169,12.13551 L1.33642169,21.3696977 L11.0466097,21.3696977 C12.4428452,21.3696977 13.8073473,21.084104 15.0766526,20.5446562 C16.3142277,20.0369483 17.4248694,19.2753542 18.3768476,18.3233857 C19.3288257,17.371385 20.0586768,16.2607497 20.598131,15.0231875 C21.1375884,13.7538854 21.3914488,12.389364 21.3914488,10.993135 C21.3914488,9.5969059 21.1375948,8.2323845 20.598131,6.96308246 C20.0586768,5.72552018 19.3288257,4.6148849 18.3768476,3.66288426 Z M8.8253231,16.9271245 L7.3656209,16.9271245 L7.3656209,12.13551 C8.0320085,12.0086152 8.5397293,11.5643225 8.5397293,10.993135 C8.5397293,10.4536872 8.0320085,9.9776869 7.3656209,9.8507599 L7.3656209,5.05914544 L8.8253231,5.05914544 C12.4428452,5.05914544 15.3622464,7.37560322 15.3622464,10.993135 C15.3622464,14.6106667 12.4428452,16.9271245 8.8253231,16.9271245 Z" id="path861"></path>
                <path d="M23.9900533,9.8507599 C23.3236689,9.9776548 22.8159481,10.4536872 22.8159481,10.993135 C22.8159481,11.5643225 23.3236689,12.008583 23.9900533,12.13551 L23.9900533,12.8971041 L23.9900533,21.3696977 L41.2208761,21.3696977 L41.2208761,16.9271245 L30.0192557,16.9271245 L30.0192557,12.8971041 L38.8409291,12.8971041 L38.8409291,8.4545308 L30.0192557,8.4545308 L30.0192557,5.05914544 L41.2208761,5.05914544 L41.2208761,0.61657218 L23.9900533,0.61657218 L23.9900533,9.8507599 Z" id="path863"></path>
                <path d="M54.2753864,0.61657218 L44.5969317,0.61657218 L44.5969317,2.5205092 L44.5969317,10.1363537 C43.9305473,10.2632485 43.4545567,10.7075412 43.4545567,11.2787287 C43.4545567,11.8181765 43.9305473,12.2941768 44.5969317,12.4211038 L44.5969317,14.7375937 L44.5969317,21.3696977 L50.6261342,21.3696977 L50.6261342,14.7375937 L54.2753864,14.7375937 C56.1476126,14.7375937 57.9246419,14.0077394 59.2574106,12.6749578 C60.5901826,11.3422083 61.3200337,9.5651661 61.3200337,7.69293676 C61.3200337,5.78896762 60.5901826,4.01195759 59.2574106,2.67917597 C57.9246419,1.34642648 56.1476126,0.61657218 54.2753864,0.61657218 Z M52.054103,10.2950204 L50.6261342,10.2950204 L50.6261342,5.05914544 L52.054103,5.05914544 C53.8628624,5.05914544 55.2908313,5.88418695 55.2908313,7.69293676 C55.2908313,9.4699789 53.8628624,10.2950204 52.054103,10.2950204 Z" id="path865"></path>
                <path d="M86.8662933,9.8507599 C86.231639,4.39273857 82.6141201,0.61657218 75.5694728,0.61657218 C68.5565621,0.61657218 64.93904,4.39273857 64.304389,9.8507599 C63.606268,9.9458507 63.0668138,10.4219474 63.0668138,10.993135 C63.0668138,11.5643225 63.606268,12.0403228 64.304389,12.13551 C64.93904,17.5935314 68.5565621,21.3696977 75.5694728,21.3696977 C82.6141201,21.3696977 86.231639,17.5935314 86.8662933,12.13551 C87.564411,12.0404192 88.1038652,11.5643225 88.1038652,10.993135 C88.1038652,10.4219474 87.564411,9.9459471 86.8662933,9.8507599 Z M80.8053607,12.1037702 C80.2976367,15.2135619 78.6792741,16.9271245 75.5694728,16.9271245 C72.4914081,16.9271245 70.8730424,15.2135619 70.3335882,12.1037702 C70.9682424,11.9768754 71.4124998,11.5325827 71.4124998,10.993135 C71.4124998,10.485427 70.9682424,10.0411664 70.3335882,9.8824997 C70.8730424,6.80441569 72.4914081,5.05914544 75.5694728,5.05914544 C78.6792741,5.05914544 80.2976367,6.80441569 80.8053607,9.8824997 C80.2024398,10.0411986 79.7581825,10.485427 79.7581825,10.993135 C79.7581825,11.5325827 80.2024398,11.9768433 80.8053607,12.1037702 Z" id="path867"></path>
                <path d="M106.66994,10.9613952 C105.749695,10.3267602 102.417767,9.2795724 101.307125,8.8987914 C101.370605,8.3910513 101.180198,7.91508309 100.799404,7.69293676 C100.323414,7.407343 99.657029,7.62964996 99.212772,8.2006769 C99.212772,8.2006769 96.0395072,7.31215578 96.0395072,6.39189493 C96.0395072,4.93218632 97.816537,5.05914544 99.371436,5.05914544 L100.640741,5.05914544 C102.354303,5.05914544 103.591875,5.94763439 103.909202,7.37560322 L108.5739,5.97937417 C108.256566,4.42447834 107.748852,3.09169673 106.51128,2.13972822 C105.273705,1.15601993 103.655342,0.61657218 101.910046,0.61657218 L97.150149,0.61657218 C95.1509926,0.61657218 93.43743,1.12428015 92.1681247,2.10798844 C90.7718892,3.15517629 90.0103048,4.67833233 90.0103048,6.39189493 C90.0103048,7.407343 90.2641588,8.3276039 90.7401559,9.1526454 C91.1844132,9.8507599 91.7873341,10.4536872 92.5489185,10.993135 C93.3422331,11.5008429 96.4520312,12.516291 97.340546,12.8653643 C97.181879,13.4682916 97.37235,14.0394792 97.816537,14.2933332 C98.355991,14.610731 99.149305,14.2933332 99.561829,13.5952186 C99.561829,13.5952186 103.211085,14.4202602 103.211085,15.6261148 C103.211085,16.8636771 100.958068,17.244458 99.879156,17.244458 L97.975197,17.244458 C95.1192624,17.244458 94.3894113,14.5154474 94.3894113,14.5154474 L89.4073871,16.0386355 C89.7247206,17.5617916 91.6286705,21.6870313 96.7058916,21.6870313 L102.100443,21.6870313 C104.099596,21.6870313 105.844892,21.1158438 107.177664,20.0052085 C107.812315,19.4340209 108.351772,18.7676462 108.70083,18.0377919 C109.04989,17.2761978 109.240284,16.4511563 109.240284,15.6261148 C109.240284,14.5789269 108.98643,13.6269584 108.510433,12.8018848 C108.066179,12.1037702 107.463258,11.4691353 106.66994,10.9613952 L106.66994,10.9613952 Z" id="path869"></path>
                <path d="M118.491842,9.8507599 L118.491842,0.61657218 L112.462639,0.61657218 L112.462639,9.8507599 C111.796255,9.9776548 111.320264,10.4536872 111.320264,10.993135 C111.320264,11.5643225 111.796255,12.008583 112.462639,12.13551 L112.462639,21.3696977 L118.491842,21.3696977 L118.491842,12.13551 C119.158226,12.0086152 119.634217,11.5643225 119.634217,10.993135 C119.634217,10.4536872 119.158226,9.9776869 118.491842,9.8507599 Z" id="path871"></path>
                <path d="M121.856483,5.05914544 L126.775044,5.05914544 L126.775044,9.8507599 C126.108656,10.0094588 125.632669,10.4536872 125.632669,10.993135 C125.632669,11.5325827 126.108656,12.008583 126.775044,12.13551 L126.775044,21.3696977 L132.804243,21.3696977 L132.804243,12.13551 C133.470631,12.0086152 133.978352,11.5643225 133.978352,10.993135 C133.978352,10.4536872 133.470631,9.9776869 132.804243,9.8507599 L132.804243,5.05914544 L137.722804,5.05914544 L137.722804,0.61657218 L121.856483,0.61657218 L121.856483,5.05914544 Z" id="path873"></path>
            </g>
        </g>
    </g>
</svg>