<?xml version="1.0" encoding="UTF-8"?>
<svg width="186px" height="73px" viewBox="0 0 186 73" version="1.1" xmlns="http://www.w3.org/2000/svg" xmlns:xlink="http://www.w3.org/1999/xlink">
    <!-- Generator: Sketch 54.1 (76490) - https://sketchapp.com -->
    <title>FakeDeposit_logo (1)</title>
    <desc>Created with Sketch.</desc>
    <g id="Page-1" stroke="none" stroke-width="1" fill="none" fill-rule="evenodd">
        <g id="FakeDeposit_logo-(1)" transform="translate(2.000000, 0.000000)" fill-rule="nonzero">
            <g id="g893" transform="translate(51.083537, 0.388394)" fill="#FFCC00">
                <path d="M3.97476489,9.41017002 C3.30838051,9.53706489 2.83238983,10.0130973 2.83238983,10.5525451 C2.83238983,11.1237326 3.30838051,11.5679932 3.97476489,11.6949201 L3.97476489,12.9007426 L3.97476489,20.9291079 L10.0039673,20.9291079 L10.0039673,13.5354097 L20.1584095,13.5354097 L20.1584095,9.09283648 L10.0039673,9.09283648 L10.0039673,4.61852344 L21.237321,4.61852344 L21.237321,0.1759823 L3.97476489,0.1759823 L3.97476489,9.41017002 Z" id="path853"></path>
                <path d="M35.2904169,7.25234689 C35.2904169,7.25234689 33.5768543,5.88785762 30.7209166,5.88785762 C25.5484955,5.88785762 23.0098849,9.88617034 23.0098849,13.4084827 C23.0098849,16.9307951 25.5484955,20.9291079 30.7209166,20.9291079 C33.5768543,20.9291079 35.2904169,19.5646186 35.2904169,19.5646186 L35.2904169,20.9291079 L40.3676379,20.9291079 L40.3676379,13.4084827 L40.3676379,5.88785762 L35.2904169,5.88785762 L35.2904169,7.25234689 Z M31.6728948,17.1212017 C29.7054718,17.1212017 28.0871092,15.6297533 28.0871092,13.4084827 C28.0871092,11.1871801 29.7054718,9.69576379 31.6728948,9.69576379 C33.6720511,9.69576379 35.2904169,11.1871801 35.2904169,13.4084827 C35.2904169,15.6297533 33.6720511,17.1212017 31.6728948,17.1212017 Z" id="path855"></path>
                <polygon id="path857" points="59.6551342 5.88785762 53.0547442 5.88785762 48.3265836 10.4890655 48.3265836 0.1759823 43.2493594 0.1759823 43.2493594 20.9291079 48.3265836 20.9291079 48.3265836 16.8990554 51.4363817 13.8844509 55.1173673 20.9291079 60.6388457 20.9291079 55.085634 10.3303988"></polygon>
                <path d="M68.9716366,5.88785762 C66.4012927,5.88785762 64.4338697,6.68115936 63.0059008,8.10912819 C61.577932,9.50535724 60.8163475,11.4093264 60.8163475,13.4084827 C60.8163475,15.4076391 61.577932,17.3115761 63.0059008,18.739545 C64.4338697,20.1358061 66.5599562,20.9291079 68.9081698,20.9291079 C73.5411368,20.9291079 75.6672234,18.4222435 76.3336078,17.3433159 L73.0334128,15.1854928 C73.0334128,15.1854928 71.9227711,17.1212017 69.6062908,17.1212017 C67.7975281,17.1212017 66.4647594,16.1374934 66.0522354,14.5825976 C66.0522354,14.5825976 66.0522354,14.5825976 66.0522354,14.5825976 L73.1920763,14.5825976 L74.9373723,14.5825976 L76.6826682,14.5825976 L76.6826682,12.8372952 C76.6826682,8.87072227 72.8112857,5.88785762 68.9716366,5.88785762 L68.9716366,5.88785762 Z M66.2426291,11.7266599 C66.2426291,10.7746593 67.3532708,9.69576379 68.9716366,9.69576379 C70.5265356,9.69576379 71.4467836,10.9015863 71.4467836,11.7266599 L66.2426291,11.7266599 Z" id="path859"></path>
            </g>
            <path d="M0.043293,44.18289 L0.043293,70.83944 L181.63884,70.83944 L181.63884,23.23217 L14.383414,23.23217 C14.4312536,23.2678089 14.4788424,23.3037831 14.526177,23.34009 C14.8514955,23.6143023 15.1628822,23.904629 15.459168,24.20998 C15.7549219,24.5145376 16.0352779,24.8336786 16.299188,25.16621 C16.5637067,25.4994696 16.8113754,25.845763 17.041264,26.20379 C17.270907,26.5609914 17.4825586,26.9294441 17.675427,27.30777 C17.8679277,27.6867772 18.0413507,28.0751758 18.195046,28.47151 C18.3490159,28.8674214 18.4831005,29.2707813 18.596798,29.68008 C18.7104341,30.0896481 18.8035157,30.5046431 18.875694,30.92351 C18.948215,31.3423424 18.9997427,31.7645398 19.030084,32.18852 C19.0512637,32.4890894 19.0617803,32.7903153 19.061614,33.09163 C19.0617846,33.5162992 19.040735,33.9407118 18.998544,34.36328 C18.9559528,34.7862102 18.8922352,35.2067456 18.80763,35.62331 C18.7231535,36.0400225 18.6178819,36.4522477 18.49221,36.85844 C18.3667147,37.2644512 18.2209961,37.6639333 18.0556,38.05539 C17.8900078,38.4467732 17.7049484,38.8296312 17.501115,39.20253 C17.2974404,39.5753018 17.0752613,39.9376605 16.835409,40.28825 C16.5952121,40.6395868 16.3375718,40.9786748 16.063456,41.30424 C15.7897341,41.6289519 15.4999571,41.9397828 15.195209,42.23557 C14.8901536,42.5319332 14.5704581,42.8128445 14.237322,43.07725 C13.9045659,43.341155 13.5588298,43.5882665 13.201407,43.81766 C12.8436656,44.0473536 12.4746581,44.259008 12.095768,44.45183 C11.7173334,44.644844 11.3294875,44.818821 10.933682,44.97311 C10.5372266,45.1271282 10.1333118,45.2612092 9.723453,45.37485 C9.31388547,45.4884907 8.89889079,45.581577 8.480024,45.65376 C8.06116315,45.7257247 7.63896558,45.7766984 7.215013,45.80649 C6.91501642,45.8281876 6.6143459,45.8392612 6.313566,45.83969 C5.8883152,45.839341 5.46334821,45.8177139 5.040259,45.77489 C4.6173572,45.7328457 4.1968224,45.6696802 3.78023,45.58563 C3.36407447,45.5010998 2.95240254,45.3958286 2.546754,45.27021 C2.14071409,45.1441706 1.74123352,44.9978978 1.34981,44.83194 C0.957895973,44.6669419 0.574482978,44.4824379 0.201009,44.27912 C0.148205702,44.2474015 0.0956329874,44.2153006 0.043295,44.18282 L0.043293,44.18289 Z" id="path965" stroke="#FFCC00" stroke-width="4.00602293" fill="#000000" stroke-linecap="round" stroke-linejoin="round"></path>
            <path d="M0.043293,44.18289 C0.0956309874,44.2153706 0.148203702,44.2474715 0.201007,44.27919 C0.574480652,44.4825079 0.957893312,44.6670119 1.349807,44.83201 C1.74123052,44.9979678 2.14071109,45.1442406 2.546751,45.27028 C2.95239954,45.3958986 3.36407147,45.5011698 3.780227,45.5857 C4.19681973,45.6697502 4.61735487,45.7329157 5.040257,45.77496 C5.46334587,45.8177839 5.88831253,45.8394109 6.313563,45.83976 C6.61434324,45.8393312 6.91501409,45.8282576 7.215011,45.80656 C7.63896324,45.7767683 8.06116048,45.7257947 8.480021,45.65383 C8.89888796,45.5816503 9.31388297,45.4885674 9.723451,45.37493 C10.13331,45.261286 10.5372248,45.1272016 10.93368,44.97318 C11.3294853,44.8188943 11.7173312,44.6449206 12.095766,44.45191 C12.4746564,44.2590848 12.8436638,44.047427 13.201405,43.81773 C13.5588278,43.5883365 13.9045639,43.341225 14.23732,43.07732 C14.5704558,42.8129145 14.8901509,42.5320032 15.195206,42.23564 C15.4999545,41.9398529 15.7897318,41.6290219 16.063454,41.30431 C16.3375698,40.9787448 16.5952101,40.6396568 16.835407,40.28832 C17.0752589,39.9377305 17.2974378,39.5753717 17.501112,39.2026 C17.7049457,38.8297012 17.8900055,38.4468432 18.055598,38.05546 C18.2209941,37.6640033 18.3667127,37.2645212 18.492208,36.85851 C18.6178792,36.452321 18.7231505,36.0400991 18.807627,35.62339 C18.8922329,35.2068223 18.9559508,34.7862836 18.998542,34.36335 C19.040733,33.9407818 19.0617826,33.5163692 19.061612,33.0917 C19.0617783,32.7903853 19.0512617,32.4891594 19.030082,32.18859 C18.9997403,31.7646097 18.9482123,31.3424123 18.875691,30.92358 C18.8035127,30.5047131 18.7104311,30.0897181 18.596795,29.68015 C18.4830975,29.2708513 18.3490129,28.8674914 18.195043,28.47158 C18.0413477,28.0752458 17.8679247,27.6868472 17.675424,27.30784 C17.4825553,26.9295175 17.2709037,26.5610681 17.041261,26.20387 C16.8113724,25.845843 16.5637037,25.4995496 16.299185,25.16629 C16.0352749,24.8337586 15.7549189,24.5146176 15.459165,24.21006 C15.1628798,23.9047056 14.8514934,23.6143756 14.526175,23.34016 C14.4788404,23.3038564 14.4312516,23.2678855 14.383412,23.23225 L0.043284,23.23225 L0.043293,44.18289 Z" id="rect887" stroke="#FFCC00" stroke-width="4.00602293" fill="#000000" stroke-linecap="round" stroke-linejoin="round"></path>
            <g id="text910" transform="translate(4.000000, 26.000000)" fill="#FFCC00">
                <path d="M4.19085,14.1847 C2.80695533,14.1215 1.473614,13.81186 0.190826,13.25578 L0.190826,10.10885 C0.923848,10.4816767 1.72006133,10.7944733 2.579466,11.04724 C3.43887133,11.2936867 4.19401033,11.41691 4.844883,11.41691 C5.382011,11.41691 5.77379833,11.35372 6.020245,11.22734 C6.27301167,11.0946333 6.399395,10.87662 6.399395,10.5733 C6.399395,10.3647733 6.307767,10.18784 6.124511,10.0425 C5.947575,9.89715333 5.64741533,9.73285333 5.224032,9.5496 C4.806968,9.36634667 4.24140367,9.14517667 3.527339,8.88609 C2.724807,8.58909 2.077094,8.25733333 1.5842,7.89082 C1.091306,7.51799333 0.731114,7.10409 0.503624,6.64911 C0.282454,6.18781 0.171869,5.61592667 0.171869,4.93346 C0.171869,3.8908 0.506784,3.07563 1.176614,2.48795 C1.84644467,1.90027 2.85119,1.53691667 4.19085,1.39789 L4.19085,0.09931 L6.152948,0.09931 L6.152948,1.37894 C7.41045933,1.44844667 8.67744933,1.75808333 9.953918,2.30785 L8.825949,5.00929 C7.50524633,4.41529 6.314086,4.11829 5.252468,4.11829 C4.746936,4.11829 4.389904,4.18148 4.181372,4.30786 C3.97915867,4.42792667 3.878052,4.60802333 3.878052,4.84815 C3.878052,5.05668333 3.95072233,5.23046 4.096063,5.36948 C4.247723,5.50218 4.50680833,5.65384 4.873319,5.82446 C5.23982967,5.98876 5.74852167,6.18149333 6.399395,6.40266 C7.72009767,6.87028 8.66797067,7.40425 9.243014,8.00457 C9.81805667,8.59857 10.105578,9.36634667 10.105578,10.3079 C10.105578,11.36952 9.76750333,12.2320833 9.091354,12.89559 C8.42152333,13.5591033 7.44205467,13.96985 6.152948,14.12783 L6.152948,15.95722 L4.19085,15.95722 L4.19085,14.1847 Z" id="path872"></path>
            </g>
            <path d="M181.63884,49.88925 C181.586507,49.856736 181.533939,49.8246018 181.48114,49.79285 C181.107666,49.5895355 180.724253,49.4050349 180.33234,49.24004 C179.940918,49.0740756 179.541439,48.9277961 179.1354,48.80175 C178.729751,48.6761144 178.318078,48.5708265 177.90192,48.48628 C177.485326,48.4022466 177.064791,48.3390977 176.64189,48.29707 C176.218801,48.2542126 175.793833,48.2325522 175.36858,48.23217 C175.067804,48.2325657 174.767135,48.2436059 174.46714,48.26527 C174.04319,48.2950186 173.620993,48.3459489 173.20213,48.41787 C172.783264,48.4900299 172.368269,48.5830928 171.9587,48.69671 C171.54884,48.8103573 171.144925,48.944445 170.74847,49.09847 C170.352663,49.2527556 169.964816,49.4267293 169.58638,49.61974 C169.207489,49.8125652 168.838482,50.024223 168.48074,50.25392 C168.123319,50.4833072 167.777585,50.730412 167.44483,50.99431 C167.111693,51.2587187 166.791996,51.5396333 166.48694,51.836 C166.182191,52.1317903 165.892413,52.4426246 165.61869,52.76734 C165.344575,53.0929052 165.086936,53.4319932 164.84674,53.78333 C164.606887,54.1339162 164.384706,54.4962716 164.18103,54.86904 C163.977199,55.2419356 163.792141,55.6247903 163.62655,56.01617 C163.461154,56.4076299 163.315435,56.8071154 163.18994,57.21313 C163.064272,57.6193192 162.959004,58.0315411 162.87453,58.44825 C162.789922,58.8648209 162.726202,59.285363 162.68361,59.7083 C162.641409,60.1308644 162.62035,60.5552736 162.62051,60.97994 C162.620334,61.2812543 162.63084,61.5824802 162.65201,61.88305 C162.682355,62.3070271 162.733886,62.7292211 162.80641,63.14805 C162.878583,63.56692 162.971659,63.9819183 163.08529,64.39149 C163.198987,64.800792 163.33307,65.2041553 163.48704,65.60007 C163.640736,65.9964042 163.814159,66.3848028 164.00666,66.76381 C164.199528,67.1421291 164.411179,67.5105751 164.64082,67.86777 C164.87071,68.2257971 165.11838,68.5720905 165.3829,68.90535 C165.64681,69.2378848 165.927166,69.5570292 166.22292,69.86159 C166.519205,70.166941 166.830592,70.4572677 167.15591,70.73148 C167.203244,70.7677936 167.250831,70.8037745 167.29867,70.83942 L181.63884,70.83942 L181.63884,49.88925 Z" id="rect887-7" stroke="#FFCC00" stroke-width="4.00602293" fill="#000000" stroke-linecap="round" stroke-linejoin="round"></path>
            <g id="text910-8" transform="translate(167.000000, 52.000000)" fill="#FFCC00">
                <path d="M4.78468,14.10807 C3.40078667,14.04487 2.06744667,13.7352333 0.78466,13.17916 L0.78466,10.03222 C1.51768,10.4050467 2.31389333,10.7178433 3.1733,10.97061 C4.0327,11.2170567 4.78783667,11.34028 5.43871,11.34028 C5.97583667,11.34028 6.36762667,11.27709 6.61408,11.15071 C6.86684,11.0180033 6.99322,10.79999 6.99322,10.49667 C6.99322,10.2881433 6.90159333,10.11121 6.71834,9.96587 C6.54140667,9.82052333 6.24124667,9.65622333 5.81786,9.47297 C5.4008,9.28971667 4.83523667,9.06854667 4.12117,8.80946 C3.31863667,8.51246 2.67092333,8.18070333 2.17803,7.81419 C1.68513667,7.44136333 1.32494333,7.02746 1.09745,6.57248 C0.876283333,6.11118 0.7657,5.53929667 0.7657,4.85683 C0.7657,3.81417 1.10061333,2.999 1.77044,2.41132 C2.44027333,1.82364 3.44502,1.46028667 4.78468,1.32126 L4.78468,0.02268 L6.74678,0.02268 L6.74678,1.30231 C8.00428667,1.37181667 9.27127667,1.68145333 10.54775,2.23122 L9.41978,4.93266 C8.09907333,4.33866 6.90791333,4.04166 5.8463,4.04166 C5.34076667,4.04166 4.98373333,4.10485 4.7752,4.23123 C4.57298667,4.35129667 4.47188,4.53139333 4.47188,4.77152 C4.47188,4.98005333 4.54455,5.15383 4.68989,5.29285 C4.84155,5.42555667 5.10063667,5.57721667 5.46715,5.74783 C5.83366333,5.91213 6.34235333,6.10486333 6.99322,6.32603 C8.31392667,6.79365 9.2618,7.32762 9.83684,7.92794 C10.4118867,8.52194 10.69941,9.28971667 10.69941,10.23127 C10.69941,11.29289 10.3613333,12.1554533 9.68518,12.81896 C9.01535333,13.4824733 8.03588667,13.89322 6.74678,14.0512 L6.74678,15.88059 L4.78468,15.88059 L4.78468,14.10807 Z" id="path868"></path>
            </g>
            <g id="g902" transform="translate(18.882642, 33.884007)" fill="#FFD42A">
                <path d="M21.3768476,5.66288426 C20.4248694,4.71091575 19.3142277,3.98106145 18.0766526,3.44161369 C16.8073473,2.90216594 15.4428452,2.61657218 14.0466097,2.61657218 L4.33642169,2.61657218 L4.33642169,11.8507599 C3.67003409,11.9776548 3.19404662,12.4536872 3.19404662,12.993135 C3.19404662,13.5643225 3.67003409,14.008583 4.33642169,14.13551 L4.33642169,23.3696977 L14.0466097,23.3696977 C15.4428452,23.3696977 16.8073473,23.084104 18.0766526,22.5446562 C19.3142277,22.0369483 20.4248694,21.2753542 21.3768476,20.3233857 C22.3288257,19.371385 23.0586768,18.2607497 23.598131,17.0231875 C24.1375884,15.7538854 24.3914488,14.389364 24.3914488,12.993135 C24.3914488,11.5969059 24.1375948,10.2323845 23.598131,8.96308246 C23.0586768,7.72552018 22.3288257,6.6148849 21.3768476,5.66288426 Z M11.8253231,18.9271245 L10.3656209,18.9271245 L10.3656209,14.13551 C11.0320085,14.0086152 11.5397293,13.5643225 11.5397293,12.993135 C11.5397293,12.4536872 11.0320085,11.9776869 10.3656209,11.8507599 L10.3656209,7.05914544 L11.8253231,7.05914544 C15.4428452,7.05914544 18.3622464,9.37560322 18.3622464,12.993135 C18.3622464,16.6106667 15.4428452,18.9271245 11.8253231,18.9271245 Z" id="path861"></path>
                <path d="M26.9900533,11.8507599 C26.3236689,11.9776548 25.8159481,12.4536872 25.8159481,12.993135 C25.8159481,13.5643225 26.3236689,14.008583 26.9900533,14.13551 L26.9900533,14.8971041 L26.9900533,23.3696977 L44.2208761,23.3696977 L44.2208761,18.9271245 L33.0192557,18.9271245 L33.0192557,14.8971041 L41.8409291,14.8971041 L41.8409291,10.4545308 L33.0192557,10.4545308 L33.0192557,7.05914544 L44.2208761,7.05914544 L44.2208761,2.61657218 L26.9900533,2.61657218 L26.9900533,11.8507599 Z" id="path863"></path>
                <path d="M57.2753864,2.61657218 L47.5969317,2.61657218 L47.5969317,4.5205092 L47.5969317,12.1363537 C46.9305473,12.2632485 46.4545567,12.7075412 46.4545567,13.2787287 C46.4545567,13.8181765 46.9305473,14.2941768 47.5969317,14.4211038 L47.5969317,16.7375937 L47.5969317,23.3696977 L53.6261342,23.3696977 L53.6261342,16.7375937 L57.2753864,16.7375937 C59.1476126,16.7375937 60.9246419,16.0077394 62.2574106,14.6749578 C63.5901826,13.3422083 64.3200337,11.5651661 64.3200337,9.69293676 C64.3200337,7.78896762 63.5901826,6.01195759 62.2574106,4.67917597 C60.9246419,3.34642648 59.1476126,2.61657218 57.2753864,2.61657218 Z M55.054103,12.2950204 L53.6261342,12.2950204 L53.6261342,7.05914544 L55.054103,7.05914544 C56.8628624,7.05914544 58.2908313,7.88418695 58.2908313,9.69293676 C58.2908313,11.4699789 56.8628624,12.2950204 55.054103,12.2950204 Z" id="path865"></path>
                <path d="M89.8662933,11.8507599 C89.231639,6.39273857 85.6141201,2.61657218 78.5694728,2.61657218 C71.5565621,2.61657218 67.93904,6.39273857 67.304389,11.8507599 C66.606268,11.9458507 66.0668138,12.4219474 66.0668138,12.993135 C66.0668138,13.5643225 66.606268,14.0403228 67.304389,14.13551 C67.93904,19.5935314 71.5565621,23.3696977 78.5694728,23.3696977 C85.6141201,23.3696977 89.231639,19.5935314 89.8662933,14.13551 C90.564411,14.0404192 91.1038652,13.5643225 91.1038652,12.993135 C91.1038652,12.4219474 90.564411,11.9459471 89.8662933,11.8507599 Z M83.8053607,14.1037702 C83.2976367,17.2135619 81.6792741,18.9271245 78.5694728,18.9271245 C75.4914081,18.9271245 73.8730424,17.2135619 73.3335882,14.1037702 C73.9682424,13.9768754 74.4124998,13.5325827 74.4124998,12.993135 C74.4124998,12.485427 73.9682424,12.0411664 73.3335882,11.8824997 C73.8730424,8.80441569 75.4914081,7.05914544 78.5694728,7.05914544 C81.6792741,7.05914544 83.2976367,8.80441569 83.8053607,11.8824997 C83.2024398,12.0411986 82.7581825,12.485427 82.7581825,12.993135 C82.7581825,13.5325827 83.2024398,13.9768433 83.8053607,14.1037702 Z" id="path867"></path>
                <path d="M109.66994,12.9613952 C108.749695,12.3267602 105.417767,11.2795724 104.307125,10.8987914 C104.370605,10.3910513 104.180198,9.91508309 103.799404,9.69293676 C103.323414,9.407343 102.657029,9.62964996 102.212772,10.2006769 C102.212772,10.2006769 99.0395072,9.31215578 99.0395072,8.39189493 C99.0395072,6.93218632 100.816537,7.05914544 102.371436,7.05914544 L103.640741,7.05914544 C105.354303,7.05914544 106.591875,7.94763439 106.909202,9.37560322 L111.5739,7.97937417 C111.256566,6.42447834 110.748852,5.09169673 109.51128,4.13972822 C108.273705,3.15601993 106.655342,2.61657218 104.910046,2.61657218 L100.150149,2.61657218 C98.1509926,2.61657218 96.43743,3.12428015 95.1681247,4.10798844 C93.7718892,5.15517629 93.0103048,6.67833233 93.0103048,8.39189493 C93.0103048,9.407343 93.2641588,10.3276039 93.7401559,11.1526454 C94.1844132,11.8507599 94.7873341,12.4536872 95.5489185,12.993135 C96.3422331,13.5008429 99.4520312,14.516291 100.340546,14.8653643 C100.181879,15.4682916 100.37235,16.0394792 100.816537,16.2933332 C101.355991,16.610731 102.149305,16.2933332 102.561829,15.5952186 C102.561829,15.5952186 106.211085,16.4202602 106.211085,17.6261148 C106.211085,18.8636771 103.958068,19.244458 102.879156,19.244458 L100.975197,19.244458 C98.1192624,19.244458 97.3894113,16.5154474 97.3894113,16.5154474 L92.4073871,18.0386355 C92.7247206,19.5617916 94.6286705,23.6870313 99.7058916,23.6870313 L105.100443,23.6870313 C107.099596,23.6870313 108.844892,23.1158438 110.177664,22.0052085 C110.812315,21.4340209 111.351772,20.7676462 111.70083,20.0377919 C112.04989,19.2761978 112.240284,18.4511563 112.240284,17.6261148 C112.240284,16.5789269 111.98643,15.6269584 111.510433,14.8018848 C111.066179,14.1037702 110.463258,13.4691353 109.66994,12.9613952 L109.66994,12.9613952 Z" id="path869"></path>
                <path d="M121.491842,11.8507599 L121.491842,2.61657218 L115.462639,2.61657218 L115.462639,11.8507599 C114.796255,11.9776548 114.320264,12.4536872 114.320264,12.993135 C114.320264,13.5643225 114.796255,14.008583 115.462639,14.13551 L115.462639,23.3696977 L121.491842,23.3696977 L121.491842,14.13551 C122.158226,14.0086152 122.634217,13.5643225 122.634217,12.993135 C122.634217,12.4536872 122.158226,11.9776869 121.491842,11.8507599 Z" id="path871"></path>
                <path d="M124.856483,7.05914544 L129.775044,7.05914544 L129.775044,11.8507599 C129.108656,12.0094588 128.632669,12.4536872 128.632669,12.993135 C128.632669,13.5325827 129.108656,14.008583 129.775044,14.13551 L129.775044,23.3696977 L135.804243,23.3696977 L135.804243,14.13551 C136.470631,14.0086152 136.978352,13.5643225 136.978352,12.993135 C136.978352,12.4536872 136.470631,11.9776869 135.804243,11.8507599 L135.804243,7.05914544 L140.722804,7.05914544 L140.722804,2.61657218 L124.856483,2.61657218 L124.856483,7.05914544 Z" id="path873"></path>
            </g>
        </g>
    </g>
</svg>