<?xml version="1.0" encoding="UTF-8"?>
<svg width="105px" height="101px" viewBox="0 0 105 101" version="1.1" xmlns="http://www.w3.org/2000/svg" xmlns:xlink="http://www.w3.org/1999/xlink">
    <!-- Generator: Sketch 54.1 (76490) - https://sketchapp.com -->
    <title>g5092</title>
    <desc>Created with Sketch.</desc>
    <g id="Page-1" stroke="none" stroke-width="1" fill="none" fill-rule="evenodd">
        <g id="law" transform="translate(-171.000000, -1.000000)" fill="#FAAA36" fill-rule="nonzero">
            <g id="g5092" transform="translate(171.110387, 0.964983)">
                <g id="g5006">
                    <g id="g5004">
                        <g id="g5002">
                            <polygon id="polygon4998" points="76.1931199 14.4745602 76.1931199 14.4737665 76.1931199 14.4533936"></polygon>
                            <path d="M90.5652864,0.165893748 L27.0652872,0.165893748 C19.1677393,0.177535414 12.7682623,6.57701242 12.7566207,14.4745602 L12.7566207,72.4712262 C4.90087702,73.3290053 -0.772054157,80.3928511 0.0857249989,88.2485947 C0.880533322,95.5278113 7.04267908,101.032203 14.3652873,101.003892 L66.09662,101.003892 C73.9941678,100.992251 80.3936448,94.5927738 80.4052865,86.695226 L80.4052865,28.7832267 L90.5652864,28.7832267 C98.4678613,28.7832267 104.873953,22.3771351 104.873953,14.4745602 C104.873953,6.57198533 98.4675967,0.165893748 90.5652864,0.165893748 Z M55.9577868,96.7705592 L14.3652873,96.7705592 C8.79501447,96.7705592 4.27937078,92.2549155 4.27937078,86.6846427 C4.27937078,81.1143698 8.79501447,76.5987261 14.3652873,76.5987261 L55.9577868,76.5987261 C50.4004785,82.1742906 50.4004785,91.1947301 55.9577868,96.7705592 Z M76.1931199,14.4737665 L76.1931199,86.695226 C76.1931199,92.259678 71.6822387,96.7705592 66.1177867,96.7705592 C60.5533347,96.7705592 56.0424535,92.259678 56.0424535,86.695226 C56.0424535,81.130774 60.5533347,76.6198928 66.1177867,76.6198928 C67.2867158,76.6198928 68.2344533,75.6721553 68.2344533,74.5032261 C68.2344533,73.334297 67.2867158,72.3865595 66.1177867,72.3865595 L17.0746206,72.3865595 L17.0746206,14.4745602 C17.0859977,8.94767905 21.5386706,4.45717078 27.0652872,4.39922703 L80.3417865,4.39922703 C77.6803428,7.07628116 76.188622,10.6989561 76.1931199,14.4737665 Z M88.4486197,24.5498934 L80.4264532,24.5498934 L80.4264532,21.0785602 L88.4486197,21.0785602 L88.4486197,24.5498934 Z M92.681953,24.3382268 L92.681953,24.3170601 L92.681953,18.9618935 C92.681953,17.7929644 91.7342155,16.8452269 90.5652864,16.8452269 L80.4264532,16.8452269 L80.4264532,14.4745602 C80.4412698,8.91010822 84.9643218,4.41139786 90.5287739,4.42621453 C96.0932259,4.44103119 100.591936,8.96408322 100.57712,14.5285352 C100.56442,19.242881 97.28438,23.3179935 92.681953,24.3382268 L92.681953,24.3382268 Z" id="path5000"></path>
                        </g>
                    </g>
                </g>
                <g id="g5012" transform="translate(28.575000, 20.902083)">
                    <g id="g5010">
                        <path d="M33.1824537,0.261143747 L2.21562081,0.261143747 C1.04669165,0.261143747 0.0989541654,1.20888123 0.0989541654,2.37781039 C0.0989541654,3.54673954 1.04669165,4.49447703 2.21562081,4.49447703 L33.1824537,4.49447703 C34.3513829,4.49447703 35.2991204,3.54673954 35.2991204,2.37781039 C35.2991204,1.20888123 34.3513829,0.261143747 33.1824537,0.261143747 Z" id="path5008"></path>
                    </g>
                </g>
                <g id="g5018" transform="translate(28.575000, 36.247916)">
                    <g id="g5016">
                        <path d="M33.1824537,0.0283104163 L2.21562081,0.0283104163 C1.04669165,0.0283104163 0.0989541654,0.976047904 0.0989541654,2.14497706 C0.0989541654,3.31390621 1.04669165,4.2616437 2.21562081,4.2616437 L33.1824537,4.2616437 C34.3513829,4.2616437 35.2991204,3.31390621 35.2991204,2.14497706 C35.2991204,0.976047904 34.3513829,0.0283104163 33.1824537,0.0283104163 Z" id="path5014"></path>
                    </g>
                </g>
                <g id="g5024" transform="translate(28.575000, 51.329166)">
                    <g id="g5022">
                        <path d="M33.1824537,0.0600604159 L2.21562081,0.0600604159 C1.04669165,0.0600604159 0.0989541654,1.0077979 0.0989541654,2.17672706 C0.0989541654,3.34565621 1.04669165,4.2933937 2.21562081,4.2933937 L33.1824537,4.2933937 C34.3513829,4.2933937 35.2991204,3.34565621 35.2991204,2.17672706 C35.2991204,1.0077979 34.3513829,0.0600604159 33.1824537,0.0600604159 Z" id="path5020"></path>
                    </g>
                </g>
            </g>
        </g>
    </g>
</svg>