<?xml version="1.0" encoding="UTF-8" standalone="no"?>
<!-- Created with Inkscape (http://www.inkscape.org/) -->

<svg
   xmlns:dc="http://purl.org/dc/elements/1.1/"
   xmlns:cc="http://creativecommons.org/ns#"
   xmlns:rdf="http://www.w3.org/1999/02/22-rdf-syntax-ns#"
   xmlns:svg="http://www.w3.org/2000/svg"
   xmlns="http://www.w3.org/2000/svg"
   xmlns:sodipodi="http://sodipodi.sourceforge.net/DTD/sodipodi-0.dtd"
   xmlns:inkscape="http://www.inkscape.org/namespaces/inkscape"
   width="210mm"
   height="297mm"
   viewBox="0 0 210 297"
   version="1.1"
   id="svg8"
   inkscape:version="0.92.4 (5da689c313, 2019-01-14)"
   sodipodi:docname="law.svg">
  <defs
     id="defs2" />
  <sodipodi:namedview
     id="base"
     pagecolor="#ffffff"
     bordercolor="#666666"
     borderopacity="1.0"
     inkscape:pageopacity="0.0"
     inkscape:pageshadow="2"
     inkscape:zoom="0.43761439"
     inkscape:cx="391.44837"
     inkscape:cy="703.4716"
     inkscape:document-units="mm"
     inkscape:current-layer="layer1"
     showgrid="false"
     inkscape:window-width="798"
     inkscape:window-height="778"
     inkscape:window-x="928"
     inkscape:window-y="29"
     inkscape:window-maximized="0" />
  <metadata
     id="metadata5">
    <rdf:RDF>
      <cc:Work
         rdf:about="">
        <dc:format>image/svg+xml</dc:format>
        <dc:type
           rdf:resource="http://purl.org/dc/dcmitype/StillImage" />
        <dc:title></dc:title>
      </cc:Work>
    </rdf:RDF>
  </metadata>
  <g
     inkscape:label="Layer 1"
     inkscape:groupmode="layer"
     id="layer1">
    <g
       id="g4756"
       transform="matrix(0.26458333,0,0,0.26458333,-128.01369,138.63228)"
       style="fill:#faab36;fill-opacity:1">
      <g
         id="g4609"
         style="fill:#faab36;fill-opacity:1">
	<g
   id="g4607"
   style="fill:#faab36;fill-opacity:1">
		<path
   id="path4605"
   d="m 420.936,150.964 c -1.858,-1.86 -4.438,-2.929 -7.067,-2.929 -2.629,0 -5.208,1.069 -7.068,2.929 -1.859,1.86 -2.929,4.439 -2.929,7.068 0,2.629 1.069,5.208 2.929,7.067 1.859,1.859 4.439,2.93 7.068,2.93 2.629,0 5.208,-1.07 7.067,-2.93 1.859,-1.858 2.93,-4.438 2.93,-7.067 0,-2.629 -1.07,-5.209 -2.93,-7.068 z"
   inkscape:connector-curvature="0"
   style="fill:#faab36;fill-opacity:1" />

	</g>

</g>
      <g
         id="g4615"
         style="fill:#faab36;fill-opacity:1">
	<g
   id="g4613"
   style="fill:#faab36;fill-opacity:1">
		<path
   id="path4611"
   d="m 413.869,128.541 c 5.52,0 9.997,-4.477 9.997,-9.997 V 30.072 c 0,-16.537 -13.454,-29.99 -29.991,-29.99 H 29.991 C 13.454,0.081 0,13.535 0,30.072 v 451.857 c 0,16.537 13.454,29.991 29.991,29.991 h 363.885 c 16.537,0 29.991,-13.454 29.991,-29.991 v -44.9 c 0,-5.52 -4.477,-9.997 -9.997,-9.997 -5.52,0 -9.997,4.477 -9.997,9.997 v 44.9 c 0,5.512 -4.485,9.997 -9.997,9.997 H 29.991 c -5.512,0 -9.997,-4.485 -9.997,-9.997 V 30.072 c 0,-5.512 4.485,-9.997 9.997,-9.997 h 363.885 c 5.512,0 9.997,4.485 9.997,9.997 v 88.472 c -10e-4,5.52 4.476,9.997 9.996,9.997 z"
   inkscape:connector-curvature="0"
   style="fill:#faab36;fill-opacity:1" />

	</g>

</g>
      <g
         id="g4621"
         style="fill:#faab36;fill-opacity:1">
	<g
   id="g4619"
   style="fill:#faab36;fill-opacity:1">
		<path
   id="path4617"
   d="m 503.216,402.156 -51.569,-51.569 c 8.879,-15.852 13.953,-34.111 13.953,-53.536 0,-60.6 -49.301,-109.902 -109.902,-109.902 -0.605,0 -1.207,0.013 -1.809,0.023 v -55.006 c 0,-5.52 -4.477,-9.997 -9.997,-9.997 H 285.466 V 68.187 c 0,-5.52 -4.477,-9.997 -9.997,-9.997 h -68.422 c -5.52,0 -9.997,4.477 -9.997,9.997 v 59.981 h -58.426 c -5.52,0 -9.997,4.477 -9.997,9.997 v 53.983 H 79.975 c -5.52,0 -9.997,4.477 -9.997,9.997 v 53.983 c 0,5.52 4.477,9.997 9.997,9.997 h 170.257 c -2.883,9.815 -4.437,20.192 -4.437,30.927 0,60.6 49.301,109.902 109.902,109.902 19.425,0 37.685,-5.072 53.536,-13.953 l 51.231,51.23 c 6.035,6.036 13.88,9.078 21.692,9.077 7.29,0 14.551,-2.649 20.28,-7.985 6.019,-5.605 9.413,-13.215 9.56,-21.424 0.145,-8.215 -2.973,-15.935 -8.78,-21.743 z M 128.626,246.131 H 89.972 v -33.989 h 38.655 v 33.989 z m 68.423,0 H 148.62 v -43.986 -53.983 h 48.429 z m 19.993,0 V 138.165 78.184 h 48.429 v 53.983 36.195 13.663 c 0,5.52 4.477,9.997 9.997,9.997 5.52,0 9.997,-4.477 9.997,-9.997 v -13.663 -26.198 h 48.43 v 47.161 c -32.845,6.637 -60.423,27.966 -75.566,56.806 z M 355.697,386.96 c -49.575,0 -89.909,-40.334 -89.909,-89.909 0,-49.575 40.333,-89.909 89.909,-89.909 49.576,0 89.909,40.333 89.909,89.909 0,49.576 -40.333,89.909 -89.909,89.909 z m 133.112,43.731 c -3.887,3.62 -10.258,3.351 -14.207,-0.599 l -48.621,-48.621 c 5.127,-4.277 9.861,-9.009 14.138,-14.138 l 48.96,48.959 c 1.936,1.936 2.976,4.51 2.927,7.248 -0.051,2.739 -1.184,5.277 -3.197,7.151 z"
   inkscape:connector-curvature="0"
   style="fill:#faab36;fill-opacity:1" />

	</g>

</g>
      <g
         id="g4627"
         style="fill:#faab36;fill-opacity:1">
	<g
   id="g4625"
   style="fill:#faab36;fill-opacity:1">
		<path
   id="path4623"
   d="m 381.723,245.935 c -4.807,-2.713 -10.906,-1.019 -13.62,3.791 l -53.752,95.214 c -2.714,4.808 -1.018,10.906 3.791,13.62 1.553,0.877 3.24,1.294 4.905,1.294 3.488,0 6.877,-1.829 8.714,-5.084 l 53.752,-95.214 c 2.715,-4.81 1.018,-10.907 -3.79,-13.621 z"
   inkscape:connector-curvature="0"
   style="fill:#faab36;fill-opacity:1" />

	</g>

</g>
      <g
         id="g4633"
         style="fill:#faab36;fill-opacity:1">
	<g
   id="g4631"
   style="fill:#faab36;fill-opacity:1">
		<path
   id="path4629"
   d="m 390.627,305.586 c -16.537,0 -29.991,13.454 -29.991,29.991 0,16.537 13.454,29.99 29.991,29.99 16.537,0 29.99,-13.454 29.99,-29.99 10e-4,-16.538 -13.453,-29.991 -29.99,-29.991 z m 0,39.987 c -5.512,0 -9.997,-4.485 -9.997,-9.997 0,-5.512 4.485,-9.997 9.997,-9.997 5.512,0 9.997,4.485 9.997,9.997 0,5.512 -4.484,9.997 -9.997,9.997 z"
   inkscape:connector-curvature="0"
   style="fill:#faab36;fill-opacity:1" />

	</g>

</g>
      <g
         id="g4639"
         style="fill:#faab36;fill-opacity:1">
	<g
   id="g4637"
   style="fill:#faab36;fill-opacity:1">
		<path
   id="path4635"
   d="m 320.767,228.535 c -16.537,0 -29.991,13.454 -29.991,29.991 0,16.537 13.454,29.991 29.991,29.991 16.537,0 29.99,-13.454 29.99,-29.991 0,-16.537 -13.454,-29.991 -29.99,-29.991 z m 0,39.987 c -5.512,0 -9.997,-4.485 -9.997,-9.997 0,-5.512 4.485,-9.997 9.997,-9.997 5.512,0 9.997,4.485 9.997,9.997 0,5.512 -4.485,9.997 -9.997,9.997 z"
   inkscape:connector-curvature="0"
   style="fill:#faab36;fill-opacity:1" />

	</g>

</g>
      <g
         id="g4645"
         style="fill:#faab36;fill-opacity:1">
	<g
   id="g4643"
   style="fill:#faab36;fill-opacity:1">
		<path
   id="path4641"
   d="M 340.76,437.943 H 63.98 c -5.52,0 -9.997,4.477 -9.997,9.997 0,5.52 4.477,9.997 9.997,9.997 h 276.78 c 5.52,0 9.997,-4.477 9.997,-9.997 0,-5.52 -4.477,-9.997 -9.997,-9.997 z"
   inkscape:connector-curvature="0"
   style="fill:#faab36;fill-opacity:1" />

	</g>

</g>
      <g
         id="g4651"
         style="fill:#faab36;fill-opacity:1">
	<g
   id="g4649"
   style="fill:#faab36;fill-opacity:1">
		<path
   id="path4647"
   d="m 211.933,381.961 h -61.985 c -5.52,0 -9.997,4.477 -9.997,9.997 0,5.52 4.477,9.997 9.997,9.997 h 61.985 c 5.52,0 9.997,-4.477 9.997,-9.997 0,-5.52 -4.477,-9.997 -9.997,-9.997 z"
   inkscape:connector-curvature="0"
   style="fill:#faab36;fill-opacity:1" />

	</g>

</g>
      <g
         id="g4657"
         style="fill:#faab36;fill-opacity:1">
	<g
   id="g4655"
   style="fill:#faab36;fill-opacity:1">
		<path
   id="path4653"
   d="m 255.659,384.89 c -1.859,-1.859 -4.439,-2.929 -7.068,-2.929 -2.629,0 -5.208,1.069 -7.068,2.929 -1.869,1.859 -2.929,4.439 -2.929,7.068 0,2.629 1.06,5.208 2.929,7.067 1.859,1.859 4.43,2.93 7.068,2.93 2.629,0 5.208,-1.07 7.068,-2.93 1.858,-1.858 2.929,-4.438 2.929,-7.067 0,-2.63 -1.069,-5.209 -2.929,-7.068 z"
   inkscape:connector-curvature="0"
   style="fill:#faab36;fill-opacity:1" />

	</g>

</g>
      <g
         id="g4663"
         style="fill:#faab36;fill-opacity:1">
	<g
   id="g4661"
   style="fill:#faab36;fill-opacity:1">
		<path
   id="path4659"
   d="m 211.933,325.978 h -61.985 c -5.52,0 -9.997,4.477 -9.997,9.997 0,5.52 4.477,9.997 9.997,9.997 h 61.985 c 5.52,0 9.997,-4.477 9.997,-9.997 0,-5.52 -4.477,-9.997 -9.997,-9.997 z"
   inkscape:connector-curvature="0"
   style="fill:#faab36;fill-opacity:1" />

	</g>

</g>
      <g
         id="g4669"
         style="fill:#faab36;fill-opacity:1">
	<g
   id="g4667"
   style="fill:#faab36;fill-opacity:1">
		<path
   id="path4665"
   d="m 85.973,351.46 c -6.615,0 -11.996,-4.47 -11.996,-9.964 0,-5.494 5.381,-9.963 11.996,-9.963 6.615,0 11.996,4.47 11.996,9.963 0,5.52 4.477,9.997 9.997,9.997 5.52,0 9.997,-4.477 9.997,-9.997 0,-13.253 -9.241,-24.515 -22.003,-28.453 -0.103,-5.431 -4.531,-9.806 -9.987,-9.806 -5.456,0 -9.885,4.375 -9.987,9.806 -12.762,3.938 -22.003,15.2 -22.003,28.453 0,16.518 14.35,29.958 31.99,29.958 6.615,0 11.996,4.47 11.996,9.963 0,5.493 -5.381,9.963 -11.996,9.963 -6.615,0 -11.996,-4.47 -11.996,-9.963 0,-5.52 -4.477,-9.997 -9.997,-9.997 -5.52,0 -9.997,4.477 -9.997,9.997 0,13.249 9.236,24.509 21.993,28.45 v 0.577 c 0,5.52 4.477,9.997 9.997,9.997 5.52,0 9.997,-4.477 9.997,-9.997 v -0.577 c 12.757,-3.941 21.993,-15.201 21.993,-28.45 0,-16.518 -14.351,-29.957 -31.99,-29.957 z"
   inkscape:connector-curvature="0"
   style="fill:#faab36;fill-opacity:1" />

	</g>

</g>
      <g
         id="g4671"
         style="fill:#faab36;fill-opacity:1">
</g>
      <g
         id="g4673"
         style="fill:#faab36;fill-opacity:1">
</g>
      <g
         id="g4675"
         style="fill:#faab36;fill-opacity:1">
</g>
      <g
         id="g4677"
         style="fill:#faab36;fill-opacity:1">
</g>
      <g
         id="g4679"
         style="fill:#faab36;fill-opacity:1">
</g>
      <g
         id="g4681"
         style="fill:#faab36;fill-opacity:1">
</g>
      <g
         id="g4683"
         style="fill:#faab36;fill-opacity:1">
</g>
      <g
         id="g4685"
         style="fill:#faab36;fill-opacity:1">
</g>
      <g
         id="g4687"
         style="fill:#faab36;fill-opacity:1">
</g>
      <g
         id="g4689"
         style="fill:#faab36;fill-opacity:1">
</g>
      <g
         id="g4691"
         style="fill:#faab36;fill-opacity:1">
</g>
      <g
         id="g4693"
         style="fill:#faab36;fill-opacity:1">
</g>
      <g
         id="g4695"
         style="fill:#faab36;fill-opacity:1">
</g>
      <g
         id="g4697"
         style="fill:#faab36;fill-opacity:1">
</g>
      <g
         id="g4699"
         style="fill:#faab36;fill-opacity:1">
</g>
    </g>
    <g
       id="g5092"
       transform="matrix(0.26458333,0,0,0.26458333,42.110387,123.1129)"
       style="fill:#faaa36;fill-opacity:1">
      <g
         id="g5006"
         style="fill:#faaa36;fill-opacity:1">
	<g
   id="g5004"
   style="fill:#faaa36;fill-opacity:1">
		<g
   id="g5002"
   style="fill:#faaa36;fill-opacity:1">
			<polygon
   id="polygon4998"
   points="287.974,61.707 287.974,61.704 287.974,61.627 "
   style="fill:#faaa36;fill-opacity:1" />

			<path
   id="path5000"
   d="m 342.294,7.627 h -240 C 72.445,7.671 48.258,31.858 48.214,61.707 v 219.2 c -29.691,3.242 -51.132,29.94 -47.89,59.631 3.004,27.512 26.294,48.316 53.97,48.209 h 195.52 c 29.849,-0.044 54.036,-24.231 54.08,-54.08 v -218.88 h 38.4 c 29.868,0 54.08,-24.212 54.08,-54.08 0,-29.868 -24.213,-54.08 -54.08,-54.08 z m -130.8,365.12 h -157.2 c -21.053,0 -38.12,-17.067 -38.12,-38.12 0,-21.053 17.067,-38.12 38.12,-38.12 h 157.2 c -21.004,21.073 -21.004,55.166 0,76.24 z m 76.48,-311.043 v 272.963 c 0,21.031 -17.049,38.08 -38.08,38.08 -21.031,0 -38.08,-17.049 -38.08,-38.08 0,-21.031 17.049,-38.08 38.08,-38.08 4.418,0 8,-3.582 8,-8 0,-4.418 -3.582,-8 -8,-8 H 64.534 V 61.707 c 0.043,-20.889 16.872,-37.861 37.76,-38.08 h 201.36 c -10.059,10.118 -15.697,23.81 -15.68,38.077 z m 46.32,38.083 h -30.32 v -13.12 h 30.32 z m 16,-0.8 v -0.08 -20.24 c 0,-4.418 -3.582,-8 -8,-8 h -38.32 v -8.96 c 0.056,-21.031 17.151,-38.034 38.182,-37.978 21.031,0.056 38.034,17.151 37.978,38.182 -0.048,17.818 -12.445,33.22 -29.84,37.076 z"
   inkscape:connector-curvature="0"
   style="fill:#faaa36;fill-opacity:1" />

		</g>

	</g>

</g>
      <g
         id="g5012"
         style="fill:#faaa36;fill-opacity:1">
	<g
   id="g5010"
   style="fill:#faaa36;fill-opacity:1">
		<path
   id="path5008"
   d="m 233.414,86.987 h -117.04 c -4.418,0 -8,3.582 -8,8 0,4.418 3.582,8 8,8 h 117.04 c 4.418,0 8,-3.582 8,-8 0,-4.418 -3.582,-8 -8,-8 z"
   inkscape:connector-curvature="0"
   style="fill:#faaa36;fill-opacity:1" />

	</g>

</g>
      <g
         id="g5018"
         style="fill:#faaa36;fill-opacity:1">
	<g
   id="g5016"
   style="fill:#faaa36;fill-opacity:1">
		<path
   id="path5014"
   d="m 233.414,144.107 h -117.04 c -4.418,0 -8,3.582 -8,8 0,4.418 3.582,8 8,8 h 117.04 c 4.418,0 8,-3.582 8,-8 0,-4.418 -3.582,-8 -8,-8 z"
   inkscape:connector-curvature="0"
   style="fill:#faaa36;fill-opacity:1" />

	</g>

</g>
      <g
         id="g5024"
         style="fill:#faaa36;fill-opacity:1">
	<g
   id="g5022"
   style="fill:#faaa36;fill-opacity:1">
		<path
   id="path5020"
   d="m 233.414,201.227 h -117.04 c -4.418,0 -8,3.582 -8,8 0,4.418 3.582,8 8,8 h 117.04 c 4.418,0 8,-3.582 8,-8 0,-4.418 -3.582,-8 -8,-8 z"
   inkscape:connector-curvature="0"
   style="fill:#faaa36;fill-opacity:1" />

	</g>

</g>
      <g
         id="g5026"
         style="fill:#faaa36;fill-opacity:1">
</g>
      <g
         id="g5028"
         style="fill:#faaa36;fill-opacity:1">
</g>
      <g
         id="g5030"
         style="fill:#faaa36;fill-opacity:1">
</g>
      <g
         id="g5032"
         style="fill:#faaa36;fill-opacity:1">
</g>
      <g
         id="g5034"
         style="fill:#faaa36;fill-opacity:1">
</g>
      <g
         id="g5036"
         style="fill:#faaa36;fill-opacity:1">
</g>
      <g
         id="g5038"
         style="fill:#faaa36;fill-opacity:1">
</g>
      <g
         id="g5040"
         style="fill:#faaa36;fill-opacity:1">
</g>
      <g
         id="g5042"
         style="fill:#faaa36;fill-opacity:1">
</g>
      <g
         id="g5044"
         style="fill:#faaa36;fill-opacity:1">
</g>
      <g
         id="g5046"
         style="fill:#faaa36;fill-opacity:1">
</g>
      <g
         id="g5048"
         style="fill:#faaa36;fill-opacity:1">
</g>
      <g
         id="g5050"
         style="fill:#faaa36;fill-opacity:1">
</g>
      <g
         id="g5052"
         style="fill:#faaa36;fill-opacity:1">
</g>
      <g
         id="g5054"
         style="fill:#faaa36;fill-opacity:1">
</g>
    </g>
  </g>
</svg>
