<?xml version="1.0" encoding="UTF-8" standalone="no"?>
<!-- Created with Inkscape (http://www.inkscape.org/) -->

<svg
   xmlns:dc="http://purl.org/dc/elements/1.1/"
   xmlns:cc="http://creativecommons.org/ns#"
   xmlns:rdf="http://www.w3.org/1999/02/22-rdf-syntax-ns#"
   xmlns:svg="http://www.w3.org/2000/svg"
   xmlns="http://www.w3.org/2000/svg"
   xmlns:sodipodi="http://sodipodi.sourceforge.net/DTD/sodipodi-0.dtd"
   xmlns:inkscape="http://www.inkscape.org/namespaces/inkscape"
   width="210mm"
   height="297mm"
   viewBox="0 0 210 297"
   version="1.1"
   id="svg8"
   inkscape:version="0.92.4 (5da689c313, 2019-01-14)"
   sodipodi:docname="zajava.svg">
  <defs
     id="defs2" />
  <sodipodi:namedview
     id="base"
     pagecolor="#ffffff"
     bordercolor="#666666"
     borderopacity="1.0"
     inkscape:pageopacity="0.0"
     inkscape:pageshadow="2"
     inkscape:zoom="0.43761439"
     inkscape:cx="391.44837"
     inkscape:cy="703.4716"
     inkscape:document-units="mm"
     inkscape:current-layer="layer1"
     showgrid="false"
     inkscape:window-width="798"
     inkscape:window-height="778"
     inkscape:window-x="928"
     inkscape:window-y="29"
     inkscape:window-maximized="0" />
  <metadata
     id="metadata5">
    <rdf:RDF>
      <cc:Work
         rdf:about="">
        <dc:format>image/svg+xml</dc:format>
        <dc:type
           rdf:resource="http://purl.org/dc/dcmitype/StillImage" />
        <dc:title></dc:title>
      </cc:Work>
    </rdf:RDF>
  </metadata>
  <g
     inkscape:label="Layer 1"
     inkscape:groupmode="layer"
     id="layer1">
    <g
       id="g4756"
       transform="matrix(0.26458333,0,0,0.26458333,-128.01369,138.63228)"
       style="fill:#faab36;fill-opacity:1">
      <g
         id="g4609"
         style="fill:#faab36;fill-opacity:1">
	<g
   id="g4607"
   style="fill:#faab36;fill-opacity:1">
		<path
   id="path4605"
   d="m 420.936,150.964 c -1.858,-1.86 -4.438,-2.929 -7.067,-2.929 -2.629,0 -5.208,1.069 -7.068,2.929 -1.859,1.86 -2.929,4.439 -2.929,7.068 0,2.629 1.069,5.208 2.929,7.067 1.859,1.859 4.439,2.93 7.068,2.93 2.629,0 5.208,-1.07 7.067,-2.93 1.859,-1.858 2.93,-4.438 2.93,-7.067 0,-2.629 -1.07,-5.209 -2.93,-7.068 z"
   inkscape:connector-curvature="0"
   style="fill:#faab36;fill-opacity:1" />

	</g>

</g>
      <g
         id="g4615"
         style="fill:#faab36;fill-opacity:1">
	<g
   id="g4613"
   style="fill:#faab36;fill-opacity:1">
		<path
   id="path4611"
   d="m 413.869,128.541 c 5.52,0 9.997,-4.477 9.997,-9.997 V 30.072 c 0,-16.537 -13.454,-29.99 -29.991,-29.99 H 29.991 C 13.454,0.081 0,13.535 0,30.072 v 451.857 c 0,16.537 13.454,29.991 29.991,29.991 h 363.885 c 16.537,0 29.991,-13.454 29.991,-29.991 v -44.9 c 0,-5.52 -4.477,-9.997 -9.997,-9.997 -5.52,0 -9.997,4.477 -9.997,9.997 v 44.9 c 0,5.512 -4.485,9.997 -9.997,9.997 H 29.991 c -5.512,0 -9.997,-4.485 -9.997,-9.997 V 30.072 c 0,-5.512 4.485,-9.997 9.997,-9.997 h 363.885 c 5.512,0 9.997,4.485 9.997,9.997 v 88.472 c -10e-4,5.52 4.476,9.997 9.996,9.997 z"
   inkscape:connector-curvature="0"
   style="fill:#faab36;fill-opacity:1" />

	</g>

</g>
      <g
         id="g4621"
         style="fill:#faab36;fill-opacity:1">
	<g
   id="g4619"
   style="fill:#faab36;fill-opacity:1">
		<path
   id="path4617"
   d="m 503.216,402.156 -51.569,-51.569 c 8.879,-15.852 13.953,-34.111 13.953,-53.536 0,-60.6 -49.301,-109.902 -109.902,-109.902 -0.605,0 -1.207,0.013 -1.809,0.023 v -55.006 c 0,-5.52 -4.477,-9.997 -9.997,-9.997 H 285.466 V 68.187 c 0,-5.52 -4.477,-9.997 -9.997,-9.997 h -68.422 c -5.52,0 -9.997,4.477 -9.997,9.997 v 59.981 h -58.426 c -5.52,0 -9.997,4.477 -9.997,9.997 v 53.983 H 79.975 c -5.52,0 -9.997,4.477 -9.997,9.997 v 53.983 c 0,5.52 4.477,9.997 9.997,9.997 h 170.257 c -2.883,9.815 -4.437,20.192 -4.437,30.927 0,60.6 49.301,109.902 109.902,109.902 19.425,0 37.685,-5.072 53.536,-13.953 l 51.231,51.23 c 6.035,6.036 13.88,9.078 21.692,9.077 7.29,0 14.551,-2.649 20.28,-7.985 6.019,-5.605 9.413,-13.215 9.56,-21.424 0.145,-8.215 -2.973,-15.935 -8.78,-21.743 z M 128.626,246.131 H 89.972 v -33.989 h 38.655 v 33.989 z m 68.423,0 H 148.62 v -43.986 -53.983 h 48.429 z m 19.993,0 V 138.165 78.184 h 48.429 v 53.983 36.195 13.663 c 0,5.52 4.477,9.997 9.997,9.997 5.52,0 9.997,-4.477 9.997,-9.997 v -13.663 -26.198 h 48.43 v 47.161 c -32.845,6.637 -60.423,27.966 -75.566,56.806 z M 355.697,386.96 c -49.575,0 -89.909,-40.334 -89.909,-89.909 0,-49.575 40.333,-89.909 89.909,-89.909 49.576,0 89.909,40.333 89.909,89.909 0,49.576 -40.333,89.909 -89.909,89.909 z m 133.112,43.731 c -3.887,3.62 -10.258,3.351 -14.207,-0.599 l -48.621,-48.621 c 5.127,-4.277 9.861,-9.009 14.138,-14.138 l 48.96,48.959 c 1.936,1.936 2.976,4.51 2.927,7.248 -0.051,2.739 -1.184,5.277 -3.197,7.151 z"
   inkscape:connector-curvature="0"
   style="fill:#faab36;fill-opacity:1" />

	</g>

</g>
      <g
         id="g4627"
         style="fill:#faab36;fill-opacity:1">
	<g
   id="g4625"
   style="fill:#faab36;fill-opacity:1">
		<path
   id="path4623"
   d="m 381.723,245.935 c -4.807,-2.713 -10.906,-1.019 -13.62,3.791 l -53.752,95.214 c -2.714,4.808 -1.018,10.906 3.791,13.62 1.553,0.877 3.24,1.294 4.905,1.294 3.488,0 6.877,-1.829 8.714,-5.084 l 53.752,-95.214 c 2.715,-4.81 1.018,-10.907 -3.79,-13.621 z"
   inkscape:connector-curvature="0"
   style="fill:#faab36;fill-opacity:1" />

	</g>

</g>
      <g
         id="g4633"
         style="fill:#faab36;fill-opacity:1">
	<g
   id="g4631"
   style="fill:#faab36;fill-opacity:1">
		<path
   id="path4629"
   d="m 390.627,305.586 c -16.537,0 -29.991,13.454 -29.991,29.991 0,16.537 13.454,29.99 29.991,29.99 16.537,0 29.99,-13.454 29.99,-29.99 10e-4,-16.538 -13.453,-29.991 -29.99,-29.991 z m 0,39.987 c -5.512,0 -9.997,-4.485 -9.997,-9.997 0,-5.512 4.485,-9.997 9.997,-9.997 5.512,0 9.997,4.485 9.997,9.997 0,5.512 -4.484,9.997 -9.997,9.997 z"
   inkscape:connector-curvature="0"
   style="fill:#faab36;fill-opacity:1" />

	</g>

</g>
      <g
         id="g4639"
         style="fill:#faab36;fill-opacity:1">
	<g
   id="g4637"
   style="fill:#faab36;fill-opacity:1">
		<path
   id="path4635"
   d="m 320.767,228.535 c -16.537,0 -29.991,13.454 -29.991,29.991 0,16.537 13.454,29.991 29.991,29.991 16.537,0 29.99,-13.454 29.99,-29.991 0,-16.537 -13.454,-29.991 -29.99,-29.991 z m 0,39.987 c -5.512,0 -9.997,-4.485 -9.997,-9.997 0,-5.512 4.485,-9.997 9.997,-9.997 5.512,0 9.997,4.485 9.997,9.997 0,5.512 -4.485,9.997 -9.997,9.997 z"
   inkscape:connector-curvature="0"
   style="fill:#faab36;fill-opacity:1" />

	</g>

</g>
      <g
         id="g4645"
         style="fill:#faab36;fill-opacity:1">
	<g
   id="g4643"
   style="fill:#faab36;fill-opacity:1">
		<path
   id="path4641"
   d="M 340.76,437.943 H 63.98 c -5.52,0 -9.997,4.477 -9.997,9.997 0,5.52 4.477,9.997 9.997,9.997 h 276.78 c 5.52,0 9.997,-4.477 9.997,-9.997 0,-5.52 -4.477,-9.997 -9.997,-9.997 z"
   inkscape:connector-curvature="0"
   style="fill:#faab36;fill-opacity:1" />

	</g>

</g>
      <g
         id="g4651"
         style="fill:#faab36;fill-opacity:1">
	<g
   id="g4649"
   style="fill:#faab36;fill-opacity:1">
		<path
   id="path4647"
   d="m 211.933,381.961 h -61.985 c -5.52,0 -9.997,4.477 -9.997,9.997 0,5.52 4.477,9.997 9.997,9.997 h 61.985 c 5.52,0 9.997,-4.477 9.997,-9.997 0,-5.52 -4.477,-9.997 -9.997,-9.997 z"
   inkscape:connector-curvature="0"
   style="fill:#faab36;fill-opacity:1" />

	</g>

</g>
      <g
         id="g4657"
         style="fill:#faab36;fill-opacity:1">
	<g
   id="g4655"
   style="fill:#faab36;fill-opacity:1">
		<path
   id="path4653"
   d="m 255.659,384.89 c -1.859,-1.859 -4.439,-2.929 -7.068,-2.929 -2.629,0 -5.208,1.069 -7.068,2.929 -1.869,1.859 -2.929,4.439 -2.929,7.068 0,2.629 1.06,5.208 2.929,7.067 1.859,1.859 4.43,2.93 7.068,2.93 2.629,0 5.208,-1.07 7.068,-2.93 1.858,-1.858 2.929,-4.438 2.929,-7.067 0,-2.63 -1.069,-5.209 -2.929,-7.068 z"
   inkscape:connector-curvature="0"
   style="fill:#faab36;fill-opacity:1" />

	</g>

</g>
      <g
         id="g4663"
         style="fill:#faab36;fill-opacity:1">
	<g
   id="g4661"
   style="fill:#faab36;fill-opacity:1">
		<path
   id="path4659"
   d="m 211.933,325.978 h -61.985 c -5.52,0 -9.997,4.477 -9.997,9.997 0,5.52 4.477,9.997 9.997,9.997 h 61.985 c 5.52,0 9.997,-4.477 9.997,-9.997 0,-5.52 -4.477,-9.997 -9.997,-9.997 z"
   inkscape:connector-curvature="0"
   style="fill:#faab36;fill-opacity:1" />

	</g>

</g>
      <g
         id="g4669"
         style="fill:#faab36;fill-opacity:1">
	<g
   id="g4667"
   style="fill:#faab36;fill-opacity:1">
		<path
   id="path4665"
   d="m 85.973,351.46 c -6.615,0 -11.996,-4.47 -11.996,-9.964 0,-5.494 5.381,-9.963 11.996,-9.963 6.615,0 11.996,4.47 11.996,9.963 0,5.52 4.477,9.997 9.997,9.997 5.52,0 9.997,-4.477 9.997,-9.997 0,-13.253 -9.241,-24.515 -22.003,-28.453 -0.103,-5.431 -4.531,-9.806 -9.987,-9.806 -5.456,0 -9.885,4.375 -9.987,9.806 -12.762,3.938 -22.003,15.2 -22.003,28.453 0,16.518 14.35,29.958 31.99,29.958 6.615,0 11.996,4.47 11.996,9.963 0,5.493 -5.381,9.963 -11.996,9.963 -6.615,0 -11.996,-4.47 -11.996,-9.963 0,-5.52 -4.477,-9.997 -9.997,-9.997 -5.52,0 -9.997,4.477 -9.997,9.997 0,13.249 9.236,24.509 21.993,28.45 v 0.577 c 0,5.52 4.477,9.997 9.997,9.997 5.52,0 9.997,-4.477 9.997,-9.997 v -0.577 c 12.757,-3.941 21.993,-15.201 21.993,-28.45 0,-16.518 -14.351,-29.957 -31.99,-29.957 z"
   inkscape:connector-curvature="0"
   style="fill:#faab36;fill-opacity:1" />

	</g>

</g>
      <g
         id="g4671"
         style="fill:#faab36;fill-opacity:1">
</g>
      <g
         id="g4673"
         style="fill:#faab36;fill-opacity:1">
</g>
      <g
         id="g4675"
         style="fill:#faab36;fill-opacity:1">
</g>
      <g
         id="g4677"
         style="fill:#faab36;fill-opacity:1">
</g>
      <g
         id="g4679"
         style="fill:#faab36;fill-opacity:1">
</g>
      <g
         id="g4681"
         style="fill:#faab36;fill-opacity:1">
</g>
      <g
         id="g4683"
         style="fill:#faab36;fill-opacity:1">
</g>
      <g
         id="g4685"
         style="fill:#faab36;fill-opacity:1">
</g>
      <g
         id="g4687"
         style="fill:#faab36;fill-opacity:1">
</g>
      <g
         id="g4689"
         style="fill:#faab36;fill-opacity:1">
</g>
      <g
         id="g4691"
         style="fill:#faab36;fill-opacity:1">
</g>
      <g
         id="g4693"
         style="fill:#faab36;fill-opacity:1">
</g>
      <g
         id="g4695"
         style="fill:#faab36;fill-opacity:1">
</g>
      <g
         id="g4697"
         style="fill:#faab36;fill-opacity:1">
</g>
      <g
         id="g4699"
         style="fill:#faab36;fill-opacity:1">
</g>
    </g>
    <g
       id="g5236"
       transform="matrix(0.23151817,0,0,0.23151817,42.909373,102.9047)"
       style="fill:#faaa36;fill-opacity:1">
      <g
         id="g5098"
         style="fill:#faaa36;fill-opacity:1">
	<g
   id="g5096"
   style="fill:#faaa36;fill-opacity:1">
		<path
   id="path5094"
   d="m 414.007,148.75 c 5.522,0 10,-4.477 10,-10 V 30 c 0,-16.542 -13.458,-30 -30,-30 h -364 c -16.542,0 -30,13.458 -30,30 v 452 c 0,16.542 13.458,30 30,30 h 364 c 16.542,0 30,-13.458 30,-30 v -73.672 c 0,-5.523 -4.478,-10 -10,-10 -5.522,0 -10,4.477 -10,10 V 482 c 0,5.514 -4.486,10 -10,10 h -364 c -5.514,0 -10,-4.486 -10,-10 V 30 c 0,-5.514 4.486,-10 10,-10 h 364 c 5.514,0 10,4.486 10,10 v 108.75 c 0,5.523 4.478,10 10,10 z"
   inkscape:connector-curvature="0"
   style="fill:#faaa36;fill-opacity:1" />

	</g>

</g>
      <g
         id="g5104"
         style="fill:#faaa36;fill-opacity:1">
	<g
   id="g5102"
   style="fill:#faaa36;fill-opacity:1">
		<path
   id="path5100"
   d="m 212.007,54 c -50.729,0 -92,41.271 -92,92 0,26.317 11.11,50.085 28.882,66.869 0.333,0.356 0.687,0.693 1.074,1 16.371,14.979 38.158,24.13 62.043,24.13 23.885,0 45.672,-9.152 62.043,-24.13 0.387,-0.307 0.741,-0.645 1.074,-1 17.774,-16.784 28.884,-40.552 28.884,-66.869 0,-50.729 -41.271,-92 -92,-92 z m 0,164 c -16.329,0 -31.399,-5.472 -43.491,-14.668 8.789,-15.585 25.19,-25.332 43.491,-25.332 18.301,0 34.702,9.747 43.491,25.332 C 243.405,212.528 228.336,218 212.007,218 Z m -16,-76 v -6.5 c 0,-8.822 7.178,-16 16,-16 8.822,0 16,7.178 16,16 v 6.5 c 0,8.822 -7.178,16 -16,16 -8.822,0 -16,-7.178 -16,-16 z m 73.94,46.683 c -7.375,-10.938 -17.596,-19.445 -29.463,-24.697 4.71,-6.087 7.523,-13.712 7.523,-21.986 v -6.5 c 0,-19.851 -16.149,-36 -36,-36 -19.851,0 -36,16.149 -36,36 v 6.5 c 0,8.274 2.813,15.899 7.523,21.986 -11.867,5.252 -22.088,13.759 -29.463,24.697 -8.829,-11.953 -14.06,-26.716 -14.06,-42.683 0,-39.701 32.299,-72 72,-72 39.701,0 72,32.299 72,72 0,15.967 -5.231,30.73 -14.06,42.683 z"
   inkscape:connector-curvature="0"
   style="fill:#faaa36;fill-opacity:1" />

	</g>

</g>
      <g
         id="g5110"
         style="fill:#faaa36;fill-opacity:1">
	<g
   id="g5108"
   style="fill:#faaa36;fill-opacity:1">
		<path
   id="path5106"
   d="m 266.007,438 h -54 c -5.522,0 -10,4.477 -10,10 0,5.523 4.478,10 10,10 h 54 c 5.522,0 10,-4.477 10,-10 0,-5.523 -4.478,-10 -10,-10 z"
   inkscape:connector-curvature="0"
   style="fill:#faaa36;fill-opacity:1" />

	</g>

</g>
      <g
         id="g5116"
         style="fill:#faaa36;fill-opacity:1">
	<g
   id="g5114"
   style="fill:#faaa36;fill-opacity:1">
		<path
   id="path5112"
   d="m 266.007,382 h -142 c -5.522,0 -10,4.477 -10,10 0,5.523 4.478,10 10,10 h 142 c 5.522,0 10,-4.477 10,-10 0,-5.523 -4.478,-10 -10,-10 z"
   inkscape:connector-curvature="0"
   style="fill:#faaa36;fill-opacity:1" />

	</g>

</g>
      <g
         id="g5122"
         style="fill:#faaa36;fill-opacity:1">
	<g
   id="g5120"
   style="fill:#faaa36;fill-opacity:1">
		<path
   id="path5118"
   d="m 266.007,326 h -142 c -5.522,0 -10,4.477 -10,10 0,5.523 4.478,10 10,10 h 142 c 5.522,0 10,-4.477 10,-10 0,-5.523 -4.478,-10 -10,-10 z"
   inkscape:connector-curvature="0"
   style="fill:#faaa36;fill-opacity:1" />

	</g>

</g>
      <g
         id="g5128"
         style="fill:#faaa36;fill-opacity:1">
	<g
   id="g5126"
   style="fill:#faaa36;fill-opacity:1">
		<path
   id="path5124"
   d="M 88.366,272.93 C 86.507,271.07 83.927,270 81.287,270 c -2.631,0 -5.211,1.07 -7.07,2.93 -1.86,1.86 -2.93,4.44 -2.93,7.07 0,2.63 1.069,5.21 2.93,7.07 1.87,1.86 4.439,2.93 7.07,2.93 2.64,0 5.21,-1.07 7.079,-2.93 1.86,-1.86 2.931,-4.44 2.931,-7.07 0,-2.63 -1.07,-5.21 -2.931,-7.07 z"
   inkscape:connector-curvature="0"
   style="fill:#faaa36;fill-opacity:1" />

	</g>

</g>
      <g
         id="g5134"
         style="fill:#faaa36;fill-opacity:1">
	<g
   id="g5132"
   style="fill:#faaa36;fill-opacity:1">
		<path
   id="path5130"
   d="M 88.366,328.93 C 86.497,327.07 83.927,326 81.287,326 c -2.631,0 -5.2,1.07 -7.07,2.93 -1.86,1.86 -2.93,4.44 -2.93,7.07 0,2.63 1.069,5.21 2.93,7.07 1.87,1.86 4.439,2.93 7.07,2.93 2.64,0 5.21,-1.07 7.079,-2.93 1.86,-1.86 2.931,-4.44 2.931,-7.07 0,-2.63 -1.07,-5.21 -2.931,-7.07 z"
   inkscape:connector-curvature="0"
   style="fill:#faaa36;fill-opacity:1" />

	</g>

</g>
      <g
         id="g5140"
         style="fill:#faaa36;fill-opacity:1">
	<g
   id="g5138"
   style="fill:#faaa36;fill-opacity:1">
		<path
   id="path5136"
   d="M 88.366,384.93 C 86.497,383.07 83.927,382 81.287,382 c -2.631,0 -5.2,1.07 -7.07,2.93 -1.86,1.86 -2.93,4.44 -2.93,7.07 0,2.63 1.069,5.21 2.93,7.07 1.859,1.86 4.439,2.93 7.07,2.93 2.64,0 5.22,-1.07 7.079,-2.93 1.86,-1.86 2.931,-4.44 2.931,-7.07 0,-2.63 -1.07,-5.21 -2.931,-7.07 z"
   inkscape:connector-curvature="0"
   style="fill:#faaa36;fill-opacity:1" />

	</g>

</g>
      <g
         id="g5146"
         style="fill:#faaa36;fill-opacity:1">
	<g
   id="g5144"
   style="fill:#faaa36;fill-opacity:1">
		<path
   id="path5142"
   d="m 266.007,270 h -142 c -5.522,0 -10,4.477 -10,10 0,5.523 4.478,10 10,10 h 142 c 5.522,0 10,-4.477 10,-10 0,-5.523 -4.478,-10 -10,-10 z"
   inkscape:connector-curvature="0"
   style="fill:#faaa36;fill-opacity:1" />

	</g>

</g>
      <g
         id="g5152"
         style="fill:#faaa36;fill-opacity:1">
	<g
   id="g5150"
   style="fill:#faaa36;fill-opacity:1">
		<path
   id="path5148"
   d="m 491.002,130.32 c -9.715,-5.609 -21.033,-7.099 -31.871,-4.196 -10.836,2.904 -19.894,9.854 -25.502,19.569 L 307.787,363.656 c -0.689,1.195 -1.125,2.52 -1.278,3.891 l -8.858,79.344 c -0.44,3.948 1.498,7.783 4.938,9.77 1.553,0.896 3.278,1.34 4.999,1.34 2.092,0 4.176,-0.655 5.931,-1.948 l 64.284,-47.344 c 1.111,-0.818 2.041,-1.857 2.73,-3.052 L 506.374,187.694 c 11.58,-20.056 4.684,-45.794 -15.372,-57.374 z m -170.939,296.074 4.626,-41.432 28.942,16.71 z m 48.15,-39.398 -38.105,-22 100.985,-174.91 38.105,22 z m 120.841,-209.303 -9.857,17.073 -38.105,-22 9.857,-17.073 c 2.938,-5.089 7.682,-8.729 13.358,-10.25 5.678,-1.522 11.606,-0.74 16.694,2.198 5.089,2.938 8.729,7.682 10.25,13.358 1.521,5.676 0.741,11.605 -2.197,16.694 z"
   inkscape:connector-curvature="0"
   style="fill:#faaa36;fill-opacity:1" />

	</g>

</g>
      <g
         id="g5154"
         style="fill:#faaa36;fill-opacity:1">
</g>
      <g
         id="g5156"
         style="fill:#faaa36;fill-opacity:1">
</g>
      <g
         id="g5158"
         style="fill:#faaa36;fill-opacity:1">
</g>
      <g
         id="g5160"
         style="fill:#faaa36;fill-opacity:1">
</g>
      <g
         id="g5162"
         style="fill:#faaa36;fill-opacity:1">
</g>
      <g
         id="g5164"
         style="fill:#faaa36;fill-opacity:1">
</g>
      <g
         id="g5166"
         style="fill:#faaa36;fill-opacity:1">
</g>
      <g
         id="g5168"
         style="fill:#faaa36;fill-opacity:1">
</g>
      <g
         id="g5170"
         style="fill:#faaa36;fill-opacity:1">
</g>
      <g
         id="g5172"
         style="fill:#faaa36;fill-opacity:1">
</g>
      <g
         id="g5174"
         style="fill:#faaa36;fill-opacity:1">
</g>
      <g
         id="g5176"
         style="fill:#faaa36;fill-opacity:1">
</g>
      <g
         id="g5178"
         style="fill:#faaa36;fill-opacity:1">
</g>
      <g
         id="g5180"
         style="fill:#faaa36;fill-opacity:1">
</g>
      <g
         id="g5182"
         style="fill:#faaa36;fill-opacity:1">
</g>
    </g>
  </g>
</svg>
