<?xml version="1.0" encoding="UTF-8"?>
<svg width="186px" height="73px" viewBox="0 0 186 73" version="1.1" xmlns="http://www.w3.org/2000/svg" xmlns:xlink="http://www.w3.org/1999/xlink">
    <!-- Generator: Sketch 54.1 (76490) - https://sketchapp.com -->
    <title>FakeDeposit_logo</title>
    <desc>Created with Sketch.</desc>
    <g id="Page-1" stroke="none" stroke-width="1" fill="none" fill-rule="evenodd">
        <g id="FakeDeposit_logo">
            <g id="g893" transform="translate(53.083537, 0.388394)" fill="#FFCC00" fill-rule="nonzero">
                <path d="M3.97476489,9.41017002 C3.30838051,9.53706489 2.83238983,10.0130973 2.83238983,10.5525451 C2.83238983,11.1237326 3.30838051,11.5679932 3.97476489,11.6949201 L3.97476489,12.9007426 L3.97476489,20.9291079 L10.0039673,20.9291079 L10.0039673,13.5354097 L20.1584095,13.5354097 L20.1584095,9.09283648 L10.0039673,9.09283648 L10.0039673,4.61852344 L21.237321,4.61852344 L21.237321,0.1759823 L3.97476489,0.1759823 L3.97476489,9.41017002 Z" id="path853"></path>
                <path d="M35.2904169,7.25234689 C35.2904169,7.25234689 33.5768543,5.88785762 30.7209166,5.88785762 C25.5484955,5.88785762 23.0098849,9.88617034 23.0098849,13.4084827 C23.0098849,16.9307951 25.5484955,20.9291079 30.7209166,20.9291079 C33.5768543,20.9291079 35.2904169,19.5646186 35.2904169,19.5646186 L35.2904169,20.9291079 L40.3676379,20.9291079 L40.3676379,13.4084827 L40.3676379,5.88785762 L35.2904169,5.88785762 L35.2904169,7.25234689 Z M31.6728948,17.1212017 C29.7054718,17.1212017 28.0871092,15.6297533 28.0871092,13.4084827 C28.0871092,11.1871801 29.7054718,9.69576379 31.6728948,9.69576379 C33.6720511,9.69576379 35.2904169,11.1871801 35.2904169,13.4084827 C35.2904169,15.6297533 33.6720511,17.1212017 31.6728948,17.1212017 Z" id="path855"></path>
                <polygon id="path857" points="59.6551342 5.88785762 53.0547442 5.88785762 48.3265836 10.4890655 48.3265836 0.1759823 43.2493594 0.1759823 43.2493594 20.9291079 48.3265836 20.9291079 48.3265836 16.8990554 51.4363817 13.8844509 55.1173673 20.9291079 60.6388457 20.9291079 55.085634 10.3303988"></polygon>
                <path d="M68.9716366,5.88785762 C66.4012927,5.88785762 64.4338697,6.68115936 63.0059008,8.10912819 C61.577932,9.50535724 60.8163475,11.4093264 60.8163475,13.4084827 C60.8163475,15.4076391 61.577932,17.3115761 63.0059008,18.739545 C64.4338697,20.1358061 66.5599562,20.9291079 68.9081698,20.9291079 C73.5411368,20.9291079 75.6672234,18.4222435 76.3336078,17.3433159 L73.0334128,15.1854928 C73.0334128,15.1854928 71.9227711,17.1212017 69.6062908,17.1212017 C67.7975281,17.1212017 66.4647594,16.1374934 66.0522354,14.5825976 C66.0522354,14.5825976 66.0522354,14.5825976 66.0522354,14.5825976 L73.1920763,14.5825976 L74.9373723,14.5825976 L76.6826682,14.5825976 L76.6826682,12.8372952 C76.6826682,8.87072227 72.8112857,5.88785762 68.9716366,5.88785762 L68.9716366,5.88785762 Z M66.2426291,11.7266599 C66.2426291,10.7746593 67.3532708,9.69576379 68.9716366,9.69576379 C70.5265356,9.69576379 71.4467836,10.9015863 71.4467836,11.7266599 L66.2426291,11.7266599 Z" id="path859"></path>
            </g>
            <g id="g1009" transform="translate(0.122562, 19.663563)">
                <g id="g991">
                    <path d="M1.92072972,24.5193243 L1.92072972,51.1758726 L183.51628,51.1758726 L183.51628,3.56860785 L16.2608515,3.56860785 C16.308691,3.6042446 16.3562798,3.6402167 16.4036144,3.6765215 C16.7289329,3.95073593 17.0403195,4.2410648 17.336605,4.546418 C17.6323588,4.8509753 17.9127146,5.17011601 18.1766247,5.50264711 C18.4411435,5.83590697 18.6888122,6.18220068 18.918701,6.54022795 C19.1483436,6.89742702 19.3599951,7.26587735 19.5528636,7.64420084 C19.7453645,8.02320925 19.9187875,8.41160903 20.0724828,8.80794442 C20.2264528,9.20385633 20.3605375,9.60721677 20.474235,10.016516 C20.587871,10.4260839 20.6809526,10.8410787 20.7531309,11.2599454 C20.8256521,11.6787778 20.87718,12.1009754 20.9075215,12.5249557 C20.9287025,12.8255236 20.9392206,13.1267478 20.9390558,13.428061 C20.9392268,13.8527298 20.9181777,14.2771419 20.8759872,14.6997097 C20.8333962,15.1226426 20.7696785,15.5431806 20.6850729,15.9597477 C20.6005963,16.3764585 20.4953249,16.7886821 20.3696533,17.1948727 C20.2441581,17.6008848 20.0984395,18.0003677 19.9330433,18.3918251 C19.7674508,18.7832065 19.5823913,19.1660629 19.3785579,19.53896 C19.1748836,19.9117331 18.9527046,20.2740931 18.7128525,20.6246838 C18.4726555,20.9760211 18.2150152,21.3151095 17.9408993,21.6406751 C17.6671771,21.9653852 17.3773999,22.2762144 17.0726518,22.5719998 C16.7675967,22.8683649 16.4479013,23.1492781 16.1147652,23.4136854 C15.7820092,23.6775905 15.4362731,23.9247021 15.0788503,24.1540957 C14.721109,24.3837897 14.3521016,24.5954446 13.9732115,24.7882669 C13.5947768,24.9812797 13.2069309,25.1552556 12.8111254,25.3095435 C12.41467,25.463563 12.0107552,25.5976453 11.6008963,25.7112872 C11.1913286,25.8249261 10.7763338,25.9180105 10.3574669,25.9901916 C9.93860636,26.0621574 9.516409,26.1131321 9.09245658,26.1429248 C8.79246013,26.1646339 8.49178934,26.1757189 8.19100877,26.1761591 C7.76575876,26.1758205 7.34079204,26.1542039 6.91770258,26.1113905 C6.49480067,26.0693472 6.07426571,26.0061827 5.6576731,25.9221336 C5.24151756,25.8376036 4.82984561,25.7323325 4.42419704,25.606714 C4.01815706,25.4806726 3.61867655,25.3343978 3.22725318,25.1684381 C2.83533919,25.0034402 2.45192623,24.8189364 2.07845227,24.6156187 C2.025649,24.5839048 1.97307626,24.5518087 1.92073822,24.5193328 L1.92072972,24.5193243 Z" id="path965" stroke="#FFCC00" stroke-width="4.00602274" fill="#000000" fill-rule="nonzero" stroke-linecap="round" stroke-linejoin="round"></path>
                    <path d="M1.92072972,24.5193243 C1.97306777,24.5518002 2.0256405,24.5838963 2.07844377,24.6156102 C2.45191773,24.8189279 2.83533069,25.0034317 3.22724468,25.1684296 C3.61866805,25.3343893 4.01814856,25.4806641 4.42418854,25.6067055 C4.82983711,25.732324 5.24150906,25.8375951 5.6576646,25.9221251 C6.07425721,26.0061742 6.49479217,26.0693387 6.91769408,26.111382 C7.34078354,26.1541954 7.76575026,26.175812 8.19100027,26.1761506 C8.49178084,26.1757104 8.79245163,26.1646254 9.09244808,26.1429163 C9.5164005,26.1131236 9.93859786,26.0621489 10.3574584,25.9901831 C10.7763253,25.918002 11.1913201,25.8249176 11.6008878,25.7112787 C12.0107467,25.5976368 12.4146615,25.4635545 12.8111169,25.309535 C13.2069224,25.1552471 13.5947683,24.9812712 13.973203,24.7882584 C14.3520931,24.5954361 14.7211005,24.3837812 15.0788418,24.1540872 C15.4362646,23.9246936 15.7820007,23.677582 16.1147567,23.4136769 C16.4478928,23.1492696 16.7675882,22.8683564 17.0726433,22.5719913 C17.3773914,22.2762059 17.6671686,21.9653767 17.9408908,21.6406666 C18.2150067,21.315101 18.472647,20.9760126 18.712844,20.6246753 C18.9526961,20.2740846 19.1748751,19.9117246 19.3785494,19.5389515 C19.5823828,19.1660544 19.7674423,18.783198 19.9330348,18.3918166 C20.098431,18.0003592 20.2441496,17.6008763 20.3696448,17.1948642 C20.4953164,16.7886736 20.6005878,16.37645 20.6850644,15.9597392 C20.76967,15.5431721 20.8333877,15.1226341 20.8759787,14.6997012 C20.9181692,14.2771334 20.9392183,13.8527213 20.9390473,13.4280525 C20.9392121,13.1267393 20.928694,12.8255151 20.907513,12.5249472 C20.8771715,12.1009669 20.8256436,11.6787693 20.7531224,11.2599369 C20.6809441,10.8410702 20.5878625,10.4260754 20.4742265,10.0165075 C20.360529,9.60720827 20.2264443,9.20384783 20.0724743,8.80793592 C19.918779,8.41160053 19.745356,8.02320075 19.5528551,7.64419234 C19.3599866,7.26586885 19.1483351,6.89741852 18.9186925,6.54021945 C18.6888037,6.18219218 18.441135,5.83589847 18.1766162,5.50263861 C17.9127061,5.17010751 17.6323503,4.85096681 17.3365965,4.5464095 C17.040311,4.2410563 16.7289244,3.95072743 16.4036059,3.676513 C16.3562713,3.6402082 16.3086825,3.6042361 16.260843,3.56859935 L1.92072122,3.56859935 L1.92072972,24.5193243 Z" id="rect887" stroke="#FFCC00" stroke-width="4.00602274" fill="#000000" fill-rule="nonzero" stroke-linecap="round" stroke-linejoin="round"></path>
                    <text id="tspan908" fill="#FFCC00" font-family="Helvetica" font-size="6.04272938" font-weight="normal">
                        <tspan x="5.29100841" y="7.89054078">$</tspan>
                    </text>
                    <path d="M183.51628,30.2256829 C183.463946,30.193177 183.411377,30.1610508 183.358577,30.129307 C182.985103,29.9259919 182.60169,29.7414907 182.209777,29.5764952 C181.818354,29.4105323 181.418874,29.2642544 181.012834,29.1382099 C180.607186,29.0125744 180.195514,28.9072864 179.779358,28.8227397 C179.362764,28.7387036 178.942229,28.6755521 178.519327,28.6335217 C178.09624,28.5906668 177.671274,28.5690087 177.246022,28.5686287 C176.945243,28.5690205 176.644572,28.5800571 176.344574,28.6017177 C175.920624,28.6314647 175.498427,28.6823933 175.079564,28.7543128 C174.660698,28.8264752 174.245704,28.9195406 173.836135,29.0331603 C173.426276,29.1468071 173.022361,29.2808945 172.625905,29.434919 C172.2301,29.589203 171.842253,29.763175 171.463818,29.9561839 C171.084929,30.1490109 170.715922,30.3606704 170.358182,30.5903691 C170.000759,30.8197566 169.655023,31.0668619 169.322267,31.3307605 C168.98913,31.5951667 168.669433,31.8760788 168.364377,32.1724429 C168.059629,32.4682347 167.769852,32.7790703 167.49613,33.103787 C167.222015,33.4293536 166.964375,33.768443 166.724179,34.1197812 C166.484327,34.4703662 166.262148,34.8327202 166.058473,35.2054873 C165.854639,35.5783826 165.66958,35.9612372 165.503987,36.3526169 C165.33859,36.7440754 165.192871,37.1435595 165.067376,37.5495728 C164.941709,37.9557623 164.836442,38.3679844 164.75197,38.7846935 C164.667361,39.2012645 164.603642,39.6218065 164.561049,40.0447435 C164.518861,40.467311 164.497814,40.8917225 164.497987,41.3163907 C164.497805,41.6177035 164.508306,41.918928 164.52947,42.2194967 C164.559813,42.6434727 164.611342,43.0656659 164.683864,43.4844939 C164.756037,43.9033643 164.849113,44.3183631 164.962744,44.7279351 C165.076441,45.137239 165.210525,45.540604 165.364496,45.9365204 C165.518192,46.3328541 165.691615,46.7212521 165.884116,47.1002588 C166.076985,47.4785756 166.288636,47.8470194 166.518279,48.204212 C166.748167,48.5622398 166.995835,48.908534 167.260353,49.2417944 C167.524264,49.5743297 167.80462,49.8934744 168.100375,50.1980356 C168.39666,50.503386 168.708046,50.7937121 169.033364,51.067924 C169.080699,51.1042379 169.128288,51.1402191 169.176129,51.1758649 L183.51628,51.1758649 L183.51628,30.2256829 Z" id="rect887-7" stroke="#FFCC00" stroke-width="4.00602273" fill="#000000" fill-rule="nonzero" stroke-linecap="round" stroke-linejoin="round"></path>
                    <text id="tspan908-2" fill="#FFCC00" font-family="Helvetica" font-size="6.04272938" font-weight="normal">
                        <tspan x="168.884842" y="33.8138773">$</tspan>
                    </text>
                </g>
                <g id="g902" transform="translate(20.760079, 14.220438)" fill="#FFD42A" fill-rule="nonzero">
                    <path d="M21.3768476,5.66288426 C20.4248694,4.71091575 19.3142277,3.98106145 18.0766526,3.44161369 C16.8073473,2.90216594 15.4428452,2.61657218 14.0466097,2.61657218 L4.33642169,2.61657218 L4.33642169,11.8507599 C3.67003409,11.9776548 3.19404662,12.4536872 3.19404662,12.993135 C3.19404662,13.5643225 3.67003409,14.008583 4.33642169,14.13551 L4.33642169,23.3696977 L14.0466097,23.3696977 C15.4428452,23.3696977 16.8073473,23.084104 18.0766526,22.5446562 C19.3142277,22.0369483 20.4248694,21.2753542 21.3768476,20.3233857 C22.3288257,19.371385 23.0586768,18.2607497 23.598131,17.0231875 C24.1375884,15.7538854 24.3914488,14.389364 24.3914488,12.993135 C24.3914488,11.5969059 24.1375948,10.2323845 23.598131,8.96308246 C23.0586768,7.72552018 22.3288257,6.6148849 21.3768476,5.66288426 Z M11.8253231,18.9271245 L10.3656209,18.9271245 L10.3656209,14.13551 C11.0320085,14.0086152 11.5397293,13.5643225 11.5397293,12.993135 C11.5397293,12.4536872 11.0320085,11.9776869 10.3656209,11.8507599 L10.3656209,7.05914544 L11.8253231,7.05914544 C15.4428452,7.05914544 18.3622464,9.37560322 18.3622464,12.993135 C18.3622464,16.6106667 15.4428452,18.9271245 11.8253231,18.9271245 Z" id="path861"></path>
                    <path d="M26.9900533,11.8507599 C26.3236689,11.9776548 25.8159481,12.4536872 25.8159481,12.993135 C25.8159481,13.5643225 26.3236689,14.008583 26.9900533,14.13551 L26.9900533,14.8971041 L26.9900533,23.3696977 L44.2208761,23.3696977 L44.2208761,18.9271245 L33.0192557,18.9271245 L33.0192557,14.8971041 L41.8409291,14.8971041 L41.8409291,10.4545308 L33.0192557,10.4545308 L33.0192557,7.05914544 L44.2208761,7.05914544 L44.2208761,2.61657218 L26.9900533,2.61657218 L26.9900533,11.8507599 Z" id="path863"></path>
                    <path d="M57.2753864,2.61657218 L47.5969317,2.61657218 L47.5969317,4.5205092 L47.5969317,12.1363537 C46.9305473,12.2632485 46.4545567,12.7075412 46.4545567,13.2787287 C46.4545567,13.8181765 46.9305473,14.2941768 47.5969317,14.4211038 L47.5969317,16.7375937 L47.5969317,23.3696977 L53.6261342,23.3696977 L53.6261342,16.7375937 L57.2753864,16.7375937 C59.1476126,16.7375937 60.9246419,16.0077394 62.2574106,14.6749578 C63.5901826,13.3422083 64.3200337,11.5651661 64.3200337,9.69293676 C64.3200337,7.78896762 63.5901826,6.01195759 62.2574106,4.67917597 C60.9246419,3.34642648 59.1476126,2.61657218 57.2753864,2.61657218 Z M55.054103,12.2950204 L53.6261342,12.2950204 L53.6261342,7.05914544 L55.054103,7.05914544 C56.8628624,7.05914544 58.2908313,7.88418695 58.2908313,9.69293676 C58.2908313,11.4699789 56.8628624,12.2950204 55.054103,12.2950204 Z" id="path865"></path>
                    <path d="M89.8662933,11.8507599 C89.231639,6.39273857 85.6141201,2.61657218 78.5694728,2.61657218 C71.5565621,2.61657218 67.93904,6.39273857 67.304389,11.8507599 C66.606268,11.9458507 66.0668138,12.4219474 66.0668138,12.993135 C66.0668138,13.5643225 66.606268,14.0403228 67.304389,14.13551 C67.93904,19.5935314 71.5565621,23.3696977 78.5694728,23.3696977 C85.6141201,23.3696977 89.231639,19.5935314 89.8662933,14.13551 C90.564411,14.0404192 91.1038652,13.5643225 91.1038652,12.993135 C91.1038652,12.4219474 90.564411,11.9459471 89.8662933,11.8507599 Z M83.8053607,14.1037702 C83.2976367,17.2135619 81.6792741,18.9271245 78.5694728,18.9271245 C75.4914081,18.9271245 73.8730424,17.2135619 73.3335882,14.1037702 C73.9682424,13.9768754 74.4124998,13.5325827 74.4124998,12.993135 C74.4124998,12.485427 73.9682424,12.0411664 73.3335882,11.8824997 C73.8730424,8.80441569 75.4914081,7.05914544 78.5694728,7.05914544 C81.6792741,7.05914544 83.2976367,8.80441569 83.8053607,11.8824997 C83.2024398,12.0411986 82.7581825,12.485427 82.7581825,12.993135 C82.7581825,13.5325827 83.2024398,13.9768433 83.8053607,14.1037702 Z" id="path867"></path>
                    <path d="M109.66994,12.9613952 C108.749695,12.3267602 105.417767,11.2795724 104.307125,10.8987914 C104.370605,10.3910513 104.180198,9.91508309 103.799404,9.69293676 C103.323414,9.407343 102.657029,9.62964996 102.212772,10.2006769 C102.212772,10.2006769 99.0395072,9.31215578 99.0395072,8.39189493 C99.0395072,6.93218632 100.816537,7.05914544 102.371436,7.05914544 L103.640741,7.05914544 C105.354303,7.05914544 106.591875,7.94763439 106.909202,9.37560322 L111.5739,7.97937417 C111.256566,6.42447834 110.748852,5.09169673 109.51128,4.13972822 C108.273705,3.15601993 106.655342,2.61657218 104.910046,2.61657218 L100.150149,2.61657218 C98.1509926,2.61657218 96.43743,3.12428015 95.1681247,4.10798844 C93.7718892,5.15517629 93.0103048,6.67833233 93.0103048,8.39189493 C93.0103048,9.407343 93.2641588,10.3276039 93.7401559,11.1526454 C94.1844132,11.8507599 94.7873341,12.4536872 95.5489185,12.993135 C96.3422331,13.5008429 99.4520312,14.516291 100.340546,14.8653643 C100.181879,15.4682916 100.37235,16.0394792 100.816537,16.2933332 C101.355991,16.610731 102.149305,16.2933332 102.561829,15.5952186 C102.561829,15.5952186 106.211085,16.4202602 106.211085,17.6261148 C106.211085,18.8636771 103.958068,19.244458 102.879156,19.244458 L100.975197,19.244458 C98.1192624,19.244458 97.3894113,16.5154474 97.3894113,16.5154474 L92.4073871,18.0386355 C92.7247206,19.5617916 94.6286705,23.6870313 99.7058916,23.6870313 L105.100443,23.6870313 C107.099596,23.6870313 108.844892,23.1158438 110.177664,22.0052085 C110.812315,21.4340209 111.351772,20.7676462 111.70083,20.0377919 C112.04989,19.2761978 112.240284,18.4511563 112.240284,17.6261148 C112.240284,16.5789269 111.98643,15.6269584 111.510433,14.8018848 C111.066179,14.1037702 110.463258,13.4691353 109.66994,12.9613952 L109.66994,12.9613952 Z" id="path869"></path>
                    <path d="M121.491842,11.8507599 L121.491842,2.61657218 L115.462639,2.61657218 L115.462639,11.8507599 C114.796255,11.9776548 114.320264,12.4536872 114.320264,12.993135 C114.320264,13.5643225 114.796255,14.008583 115.462639,14.13551 L115.462639,23.3696977 L121.491842,23.3696977 L121.491842,14.13551 C122.158226,14.0086152 122.634217,13.5643225 122.634217,12.993135 C122.634217,12.4536872 122.158226,11.9776869 121.491842,11.8507599 Z" id="path871"></path>
                    <path d="M124.856483,7.05914544 L129.775044,7.05914544 L129.775044,11.8507599 C129.108656,12.0094588 128.632669,12.4536872 128.632669,12.993135 C128.632669,13.5325827 129.108656,14.008583 129.775044,14.13551 L129.775044,23.3696977 L135.804243,23.3696977 L135.804243,14.13551 C136.470631,14.0086152 136.978352,13.5643225 136.978352,12.993135 C136.978352,12.4536872 136.470631,11.9776869 135.804243,11.8507599 L135.804243,7.05914544 L140.722804,7.05914544 L140.722804,2.61657218 L124.856483,2.61657218 L124.856483,7.05914544 Z" id="path873"></path>
                </g>
            </g>
        </g>
    </g>
</svg>